<svg width="1655" height="962" xmlns="http://www.w3.org/2000/svg" xmlns:xlink="http://www.w3.org/1999/xlink" xml:space="preserve" overflow="hidden"><defs><clipPath id="clip0"><rect x="64" y="17014" width="1655" height="962"/></clipPath></defs><g clip-path="url(#clip0)" transform="translate(-64 -17014)"><rect x="65" y="17015" width="1652" height="959" fill="#FFFFFF"/><g><path d="M760.324 17233.4C936.416 17233.4 1079.17 17376.2 1079.17 17552.3 1079.17 17616.7 1059.66 17679.6 1023.21 17732.7L760.324 17552.3Z" stroke="#FFFFFF" stroke-width="6.875" stroke-linejoin="round" stroke-miterlimit="10" fill="#4285F4" fill-rule="evenodd"/></g><g><path d="M1023.21 17732.7C923.573 17877.9 725.098 17914.8 579.909 17815.2 434.719 17715.5 397.794 17517 497.435 17371.9 556.898 17285.2 655.237 17233.4 760.324 17233.4L760.324 17552.3Z" stroke="#FFFFFF" stroke-width="6.875" stroke-linejoin="round" stroke-miterlimit="10" fill="#EA4335" fill-rule="evenodd"/></g><g><text fill="#404040" font-family="Arial,Arial_MSFontService,sans-serif" font-weight="400" font-size="41" transform="matrix(1 0 0 1 1072.32 17397)">93</text></g><g><text fill="#404040" font-family="Arial,Arial_MSFontService,sans-serif" font-weight="400" font-size="41" transform="matrix(1 0 0 1 1118.2 17397)">; </text></g><g><text fill="#404040" font-family="Arial,Arial_MSFontService,sans-serif" font-weight="400" font-size="41" transform="matrix(1 0 0 1 1141.11 17397)">35%</text></g><g><text fill="#404040" font-family="Arial,Arial_MSFontService,sans-serif" font-weight="400" font-size="41" transform="matrix(1 0 0 1 273.823 17738)">176</text></g><g><text fill="#404040" font-family="Arial,Arial_MSFontService,sans-serif" font-weight="400" font-size="41" transform="matrix(1 0 0 1 342.642 17738)">; </text></g><g><text fill="#404040" font-family="Arial,Arial_MSFontService,sans-serif" font-weight="400" font-size="41" transform="matrix(1 0 0 1 365.559 17738)">65%</text></g><g><text fill="#595959" font-family="Arial,Arial_MSFontService,sans-serif" font-weight="400" font-size="64" transform="matrix(1 0 0 1 624.623 17110)">Qual'è il tuo ruolo?</text></g><g><rect x="1476.5" y="17505.5" width="19.9999" height="21" stroke="#FFFFFF" stroke-width="6.875" stroke-linejoin="round" stroke-miterlimit="10" fill="#4285F4"/></g><g><text fill="#595959" font-family="Arial,Arial_MSFontService,sans-serif" font-weight="400" font-size="41" transform="matrix(1 0 0 1 1505.38 17528)">Docente</text></g><g><rect x="1476.5" y="17578.5" width="19.9999" height="21" stroke="#FFFFFF" stroke-width="6.875" stroke-linejoin="round" stroke-miterlimit="10" fill="#EA4335"/></g><g><text fill="#595959" font-family="Arial,Arial_MSFontService,sans-serif" font-weight="400" font-size="41" transform="matrix(1 0 0 1 1505.38 17602)">Studente</text></g><rect x="65.5002" y="17015.5" width="1652" height="959" stroke="#D9D9D9" stroke-width="3.4375" stroke-linejoin="round" stroke-miterlimit="10" fill="none"/></g></svg>