<svg width="1655" height="953" xmlns="http://www.w3.org/2000/svg" xmlns:xlink="http://www.w3.org/1999/xlink" xml:space="preserve" overflow="hidden"><defs><clipPath id="clip0"><rect x="75" y="17952" width="1655" height="953"/></clipPath></defs><g clip-path="url(#clip0)" transform="translate(-75 -17952)"><rect x="76" y="17953" width="1652" height="950" fill="#FFFFFF"/><g><path d="M739.032 18239.4C895.277 18239.4 1021.94 18366.1 1021.94 18522.3 1021.94 18528.9 1021.71 18535.6 1021.24 18542.2L739.032 18522.3Z" stroke="#FFFFFF" stroke-width="6.875" stroke-linejoin="round" stroke-miterlimit="10" fill="#4285F4" fill-rule="evenodd"/></g><g><path d="M1021.24 18542.2C1017.64 18593.2 1000.28 18642.3 970.987 18684.3L739.032 18522.3Z" stroke="#FFFFFF" stroke-width="6.875" stroke-linejoin="round" stroke-miterlimit="10" fill="#EA4335" fill-rule="evenodd"/></g><g><path d="M970.987 18684.3C881.535 18812.4 705.171 18843.7 577.066 18754.3 448.961 18664.8 417.626 18488.4 507.078 18360.3 528.667 18329.4 556.22 18303.1 588.116 18283L739.032 18522.3Z" stroke="#FFFFFF" stroke-width="6.875" stroke-linejoin="round" stroke-miterlimit="10" fill="#FBBC04" fill-rule="evenodd"/></g><g><path d="M588.116 18283C633.295 18254.5 685.618 18239.4 739.032 18239.4L739.032 18522.3Z" stroke="#FFFFFF" stroke-width="6.875" stroke-linejoin="round" stroke-miterlimit="10" fill="#34A853" fill-rule="evenodd"/></g><g><path d="M958 18262 988.167 18262 988.167 18262 1033.42 18262 1139 18262 1139 18298.2 1139 18298.2 1139 18313.7 1139 18324 1033.42 18324 945.65 18329.6 988.167 18324 958 18324 958 18313.7 958 18298.2 958 18298.2Z" fill="#FFFFFF" fill-rule="evenodd"/></g><g><g><text fill="#595959" font-family="Arial,Arial_MSFontService,sans-serif" font-weight="400" font-size="41" transform="matrix(1 0 0 1 972.931 18308)">70</text></g></g><g><g><text fill="#595959" font-family="Arial,Arial_MSFontService,sans-serif" font-weight="400" font-size="41" transform="matrix(1 0 0 1 1018.81 18308)">; </text></g></g><g><g><text fill="#595959" font-family="Arial,Arial_MSFontService,sans-serif" font-weight="400" font-size="41" transform="matrix(1 0 0 1 1041.73 18308)">26%</text></g></g><g><path d="M1021 18600 1047.17 18600 1047.17 18600 1086.42 18600 1178 18600 1178 18610.3 1178 18610.3 1178 18625.8 1178 18662 1086.42 18662 1047.17 18662 1047.17 18662 1021 18662 1021 18625.8 1005.92 18616.2 1021 18610.3Z" fill="#FFFFFF" fill-rule="evenodd"/></g><g><g><text fill="#595959" font-family="Arial,Arial_MSFontService,sans-serif" font-weight="400" font-size="41" transform="matrix(1 0 0 1 1035.38 18647)">23</text></g></g><g><g><text fill="#595959" font-family="Arial,Arial_MSFontService,sans-serif" font-weight="400" font-size="41" transform="matrix(1 0 0 1 1081.26 18647)">; </text></g></g><g><g><text fill="#595959" font-family="Arial,Arial_MSFontService,sans-serif" font-weight="400" font-size="41" transform="matrix(1 0 0 1 1104.18 18647)">9%</text></g></g><g><path d="M318 18724 437 18724 534.448 18717.6 488 18724 522 18724 522 18734.3 522 18734.3 522 18749.8 522 18786 488 18786 437 18786 437 18786 318 18786 318 18749.8 318 18734.3 318 18734.3Z" fill="#FFFFFF" fill-rule="evenodd"/></g><g><g><text fill="#595959" font-family="Arial,Arial_MSFontService,sans-serif" font-weight="400" font-size="41" transform="matrix(1 0 0 1 332.902 18770)">151</text></g></g><g><g><text fill="#595959" font-family="Arial,Arial_MSFontService,sans-serif" font-weight="400" font-size="41" transform="matrix(1 0 0 1 401.721 18770)">; </text></g></g><g><g><text fill="#595959" font-family="Arial,Arial_MSFontService,sans-serif" font-weight="400" font-size="41" transform="matrix(1 0 0 1 424.638 18770)">56%</text></g></g><g><path d="M508 18178 600.167 18178 600.167 18178 639.667 18178 666 18178 666 18214.2 666 18214.2 666 18229.7 666 18240 639.667 18240 660.866 18250.9 600.167 18240 508 18240 508 18229.7 508 18214.2 508 18214.2Z" fill="#FFFFFF" fill-rule="evenodd"/></g><g><g><text fill="#595959" font-family="Arial,Arial_MSFontService,sans-serif" font-weight="400" font-size="41" transform="matrix(1 0 0 1 522.687 18224)">24</text></g></g><g><g><text fill="#595959" font-family="Arial,Arial_MSFontService,sans-serif" font-weight="400" font-size="41" transform="matrix(1 0 0 1 568.567 18224)">; </text></g></g><g><g><text fill="#595959" font-family="Arial,Arial_MSFontService,sans-serif" font-weight="400" font-size="41" transform="matrix(1 0 0 1 591.483 18224)">9%</text></g></g><g><text fill="#595959" font-family="Arial,Arial_MSFontService,sans-serif" font-weight="400" font-size="64" transform="matrix(1 0 0 1 290.313 18047)">Hai familiarità con il concetto di intelligenza </text></g><g><text fill="#595959" font-family="Arial,Arial_MSFontService,sans-serif" font-weight="400" font-size="64" transform="matrix(1 0 0 1 757.492 18121)">artificiale?</text></g><g><rect x="1423.5" y="18402.5" width="19.9999" height="21" stroke="#FFFFFF" stroke-width="6.875" stroke-linejoin="round" stroke-miterlimit="10" fill="#4285F4"/></g><g><text fill="#595959" font-family="Arial,Arial_MSFontService,sans-serif" font-weight="400" font-size="41" transform="matrix(1 0 0 1 1452.49 18425)">Docente Sì</text></g><g><rect x="1423.5" y="18475.5" width="19.9999" height="21" stroke="#FFFFFF" stroke-width="6.875" stroke-linejoin="round" stroke-miterlimit="10" fill="#EA4335"/></g><g><text fill="#595959" font-family="Arial,Arial_MSFontService,sans-serif" font-weight="400" font-size="41" transform="matrix(1 0 0 1 1452.49 18499)">Docente No</text></g><g><rect x="1423.5" y="18548.5" width="19.9999" height="21" stroke="#FFFFFF" stroke-width="6.875" stroke-linejoin="round" stroke-miterlimit="10" fill="#FBBC04"/></g><g><text fill="#595959" font-family="Arial,Arial_MSFontService,sans-serif" font-weight="400" font-size="41" transform="matrix(1 0 0 1 1452.49 18572)">Studente Sì</text></g><g><rect x="1423.5" y="18621.5" width="19.9999" height="21" stroke="#FFFFFF" stroke-width="6.875" stroke-linejoin="round" stroke-miterlimit="10" fill="#34A853"/></g><g><text fill="#595959" font-family="Arial,Arial_MSFontService,sans-serif" font-weight="400" font-size="41" transform="matrix(1 0 0 1 1452.49 18645)">Studente No</text></g><rect x="76.5002" y="17953.5" width="1652" height="950" stroke="#D9D9D9" stroke-width="3.4375" stroke-linejoin="round" stroke-miterlimit="10" fill="none"/></g></svg>