<?xml version="1.0" encoding="UTF-8"?>
<svg id="Livello_1" data-name="Livello 1" xmlns="http://www.w3.org/2000/svg" version="1.1" xmlns:xlink="http://www.w3.org/1999/xlink" viewBox="0 0 1655 953">
  <defs>
    <style>
      .cls-1, .cls-2, .cls-3, .cls-4, .cls-5 {
        fill-rule: evenodd;
      }

      .cls-1, .cls-6, .cls-7 {
        stroke-width: 0px;
      }

      .cls-1, .cls-7 {
        fill: #fff;
      }

      .cls-2, .cls-8, .cls-9, .cls-3, .cls-10, .cls-11, .cls-4, .cls-12, .cls-5 {
        stroke-linejoin: round;
      }

      .cls-2, .cls-8, .cls-9, .cls-3, .cls-10, .cls-4, .cls-12, .cls-5 {
        stroke: #fff;
        stroke-width: 6.9px;
      }

      .cls-2, .cls-12 {
        fill: #4285f4;
      }

      .cls-8, .cls-3 {
        fill: #fbbc04;
      }

      .cls-6, .cls-11 {
        fill: none;
      }

      .cls-9, .cls-4 {
        fill: #ea4335;
      }

      .cls-10, .cls-5 {
        fill: #34a853;
      }

      .cls-13 {
        font-size: 41px;
      }

      .cls-13, .cls-14 {
        fill: #595959;
        font-family: ArialMT, Arial;
        isolation: isolate;
      }

      .cls-15 {
        clip-path: url(#clippath);
      }

      .cls-11 {
        display: none;
        stroke: #d9d9d9;
        stroke-width: 3.4px;
      }

      .cls-14 {
        font-size: 64px;
      }
    </style>
    <clipPath id="clippath">
      <rect class="cls-6" width="1655" height="953"/>
    </clipPath>
  </defs>
  <g class="cls-15">
    <g>
      <rect class="cls-7" x="1" y="1" width="1652" height="950"/>
      <path class="cls-2" d="M664,287.4c156.2,0,282.9,126.7,282.9,282.9s-.2,13.3-.7,19.9l-282.2-19.9v-282.9Z"/>
      <path class="cls-4" d="M946.2,590.2c-3.6,51-21,100.1-50.3,142.1l-232-162,282.2,19.9Z"/>
      <path class="cls-3" d="M896,732.3c-89.5,128.1-265.8,159.4-393.9,70-128.1-89.5-159.4-265.9-70-394,21.6-30.9,49.1-57.2,81-77.3l150.9,239.3,232,162Z"/>
      <path class="cls-5" d="M513.1,331c45.2-28.5,97.5-43.6,150.9-43.6v282.9l-150.9-239.3Z"/>
      <path class="cls-1" d="M883,310h181v36.2h0v25.8h-105.6l-87.8,5.6,42.5-5.6h-30.2v-25.8h0v-36.2Z"/>
      <text class="cls-13" transform="translate(897.9 356)"><tspan x="0" y="0">70</tspan></text>
      <text class="cls-13" transform="translate(943.8 356)"><tspan x="0" y="0">; </tspan></text>
      <text class="cls-13" transform="translate(966.7 356)"><tspan x="0" y="0">26%</tspan></text>
      <path class="cls-1" d="M946,648h157v10.3h0v51.7h-157v-36.2l-15.1-9.6,15.1-5.9v-10.3Z"/>
      <text class="cls-13" transform="translate(960.4 695)"><tspan x="0" y="0">23</tspan></text>
      <text class="cls-13" transform="translate(1006.3 695)"><tspan x="0" y="0">; </tspan></text>
      <text class="cls-13" transform="translate(1029.2 695)"><tspan x="0" y="0">9%</tspan></text>
      <path class="cls-1" d="M243,772h119l97.4-6.4-46.4,6.4h34v10.3h0v51.7h-204v-51.7h0v-10.3Z"/>
      <text class="cls-13" transform="translate(257.9 818)"><tspan x="0" y="0">151</tspan></text>
      <text class="cls-13" transform="translate(326.7 818)"><tspan x="0" y="0">; </tspan></text>
      <text class="cls-13" transform="translate(349.6 818)"><tspan x="0" y="0">56%</tspan></text>
      <path class="cls-1" d="M433,226h158v36.2h0v25.8h-26.3l21.2,10.9-60.7-10.9h-92.2v-25.8h0v-36.2Z"/>
      <text class="cls-13" transform="translate(447.7 272)"><tspan x="0" y="0">24</tspan></text>
      <text class="cls-13" transform="translate(493.6 272)"><tspan x="0" y="0">; </tspan></text>
      <text class="cls-13" transform="translate(516.5 272)"><tspan x="0" y="0">9%</tspan></text>
      <text class="cls-14" transform="translate(215.3 95)"><tspan x="0" y="0">Hai familiarità con il concetto di intelligenza </tspan></text>
      <text class="cls-14" transform="translate(682.5 169)"><tspan x="0" y="0">artificiale?</tspan></text>
      <rect class="cls-12" x="1348.5" y="450.5" width="20" height="21"/>
      <text class="cls-13" transform="translate(1377.5 473)"><tspan x="0" y="0">Docente Sì</tspan></text>
      <rect class="cls-9" x="1348.5" y="523.5" width="20" height="21"/>
      <text class="cls-13" transform="translate(1377.5 547)"><tspan x="0" y="0">Docente No</tspan></text>
      <rect class="cls-8" x="1348.5" y="596.5" width="20" height="21"/>
      <text class="cls-13" transform="translate(1377.5 620)"><tspan x="0" y="0">Studente Sì</tspan></text>
      <rect class="cls-10" x="1348.5" y="669.5" width="20" height="21"/>
      <text class="cls-13" transform="translate(1377.5 693)"><tspan x="0" y="0">Studente No</tspan></text>
      <rect class="cls-11" x="1.5" y="1.5" width="1652" height="950"/>
    </g>
  </g>
</svg>