<?xml version="1.0" encoding="UTF-8"?>
<svg id="Livello_1" data-name="Livello 1" xmlns="http://www.w3.org/2000/svg" version="1.1" xmlns:xlink="http://www.w3.org/1999/xlink" viewBox="0 0 1654 962">
  <defs>
    <style>
      .cls-1, .cls-2, .cls-3, .cls-4, .cls-5, .cls-6, .cls-7, .cls-8, .cls-9 {
        stroke-linejoin: round;
      }

      .cls-1, .cls-2, .cls-3, .cls-4, .cls-5, .cls-7, .cls-8, .cls-9 {
        stroke: #fff;
        stroke-width: 6.9px;
      }

      .cls-1, .cls-4, .cls-7, .cls-9 {
        fill-rule: evenodd;
      }

      .cls-1, .cls-8 {
        fill: #4285f4;
      }

      .cls-2, .cls-4 {
        fill: #fbbc04;
      }

      .cls-10 {
        fill: #404040;
      }

      .cls-10, .cls-11 {
        font-size: 41px;
      }

      .cls-10, .cls-11, .cls-12 {
        font-family: ArialMT, Arial;
        isolation: isolate;
      }

      .cls-13, .cls-6 {
        fill: none;
      }

      .cls-13, .cls-14 {
        stroke-width: 0px;
      }

      .cls-3, .cls-7 {
        fill: #ea4335;
      }

      .cls-5, .cls-9 {
        fill: #34a853;
      }

      .cls-11, .cls-12 {
        fill: #595959;
      }

      .cls-15 {
        clip-path: url(#clippath);
      }

      .cls-6 {
        display: none;
        stroke: #d9d9d9;
        stroke-width: 3.4px;
      }

      .cls-14 {
        fill: #fff;
      }

      .cls-12 {
        font-size: 64px;
      }
    </style>
    <clipPath id="clippath">
      <rect class="cls-13" width="1654" height="962"/>
    </clipPath>
  </defs>
  <g class="cls-15">
    <g>
      <rect class="cls-14" x="1" y="1" width="1651" height="959"/>
      <path class="cls-1" d="M663.6,288.6c84.2,0,164.1,37,218.6,101.2l-218.6,185.3v-286.5Z"/>
      <path class="cls-7" d="M882.1,389.8c84.2,99.2,90.9,242.7,16.4,349.4l-234.9-164.1,218.6-185.3Z"/>
      <path class="cls-4" d="M898.5,739.2c-90.6,129.7-269.2,161.5-399,70.9-50-34.9-87.5-84.9-107.2-142.6l271.3-92.4,234.9,164.1Z"/>
      <path class="cls-9" d="M392.3,667.5c-51-149.8,29.1-312.6,178.9-363.6,29.7-10.2,61-15.3,92.4-15.3v286.5l-271.3,92.4Z"/>
      <text class="cls-10" transform="translate(805.7 289)"><tspan x="0" y="0">37</tspan></text>
      <text class="cls-10" transform="translate(851.5 289)"><tspan x="0" y="0">; </tspan></text>
      <text class="cls-10" transform="translate(874.5 289)"><tspan x="0" y="0">14%</tspan></text>
      <text class="cls-10" transform="translate(979.9 575)"><tspan x="0" y="0">56</tspan></text>
      <text class="cls-10" transform="translate(1025.8 575)"><tspan x="0" y="0">; </tspan></text>
      <text class="cls-10" transform="translate(1048.7 575)"><tspan x="0" y="0">21%</tspan></text>
      <text class="cls-10" transform="translate(506.9 916)"><tspan x="0" y="0">94</tspan></text>
      <text class="cls-10" transform="translate(552.8 916)"><tspan x="0" y="0">; </tspan></text>
      <text class="cls-10" transform="translate(575.7 916)"><tspan x="0" y="0">35%</tspan></text>
      <text class="cls-10" transform="translate(251.8 395)"><tspan x="0" y="0">81</tspan></text>
      <text class="cls-10" transform="translate(297.7 395)"><tspan x="0" y="0">; </tspan></text>
      <text class="cls-10" transform="translate(320.6 395)"><tspan x="0" y="0">30%</tspan></text>
      <text class="cls-12" transform="translate(285.4 96)"><tspan x="0" y="0">Temi che l&apos;intelligenza artificiale possa </tspan></text>
      <text class="cls-12" transform="translate(482.3 170)"><tspan x="0" y="0">sostituire i lavori umani?</tspan></text>
      <rect class="cls-8" x="1347.5" y="455.5" width="20" height="20"/>
      <text class="cls-11" transform="translate(1376.5 478)"><tspan x="0" y="0">Docente Sì</tspan></text>
      <rect class="cls-3" x="1347.5" y="528.5" width="20" height="20"/>
      <text class="cls-11" transform="translate(1376.5 551)"><tspan x="0" y="0">Docente No</tspan></text>
      <rect class="cls-2" x="1347.5" y="601.5" width="20" height="21"/>
      <text class="cls-11" transform="translate(1376.5 624)"><tspan x="0" y="0">Studente Sì</tspan></text>
      <rect class="cls-5" x="1347.5" y="674.5" width="20" height="21"/>
      <text class="cls-11" transform="translate(1376.5 698)"><tspan x="0" y="0">Studente No</tspan></text>
      <rect class="cls-6" x="1.5" y="1.5" width="1651" height="959"/>
    </g>
  </g>
</svg>