<?xml version="1.0" encoding="UTF-8"?>
<svg id="Livello_1" data-name="Livello 1" xmlns="http://www.w3.org/2000/svg" version="1.1" xmlns:xlink="http://www.w3.org/1999/xlink" viewBox="0 0 1654 962">
  <defs>
    <style>
      .cls-1, .cls-2, .cls-3, .cls-4, .cls-5, .cls-6, .cls-7, .cls-8, .cls-9 {
        stroke-linejoin: round;
      }

      .cls-1, .cls-2, .cls-3, .cls-4, .cls-5, .cls-7, .cls-8, .cls-9 {
        stroke: #fff;
        stroke-width: 6.9px;
      }

      .cls-1, .cls-4, .cls-7, .cls-9 {
        fill-rule: evenodd;
      }

      .cls-1, .cls-8 {
        fill: #4285f4;
      }

      .cls-2, .cls-4 {
        fill: #fbbc04;
      }

      .cls-10 {
        fill: #404040;
      }

      .cls-10, .cls-11 {
        font-size: 41px;
      }

      .cls-10, .cls-11, .cls-12 {
        font-family: ArialMT, Arial;
        isolation: isolate;
      }

      .cls-13, .cls-6 {
        fill: none;
      }

      .cls-13, .cls-14 {
        stroke-width: 0px;
      }

      .cls-3, .cls-7 {
        fill: #ea4335;
      }

      .cls-5, .cls-9 {
        fill: #34a853;
      }

      .cls-11, .cls-12 {
        fill: #595959;
      }

      .cls-15 {
        clip-path: url(#clippath);
      }

      .cls-6 {
        display: none;
        stroke: #d9d9d9;
        stroke-width: 3.4px;
      }

      .cls-14 {
        fill: #fff;
      }

      .cls-12 {
        font-size: 64px;
      }
    </style>
    <clipPath id="clippath">
      <rect class="cls-13" width="1654" height="962"/>
    </clipPath>
  </defs>
  <g class="cls-15">
    <g>
      <rect class="cls-14" x="1" y="1" width="1651" height="959"/>
      <path class="cls-1" d="M663.6,288.1c158.3,0,286.6,128.3,286.6,286.5s-1.7,35.8-5,53.5l-281.5-53.5v-286.5Z"/>
      <path class="cls-7" d="M945.1,628.1c-7.5,39.7-23.4,77.4-46.6,110.6l-234.9-164.1,281.5,53.5Z"/>
      <path class="cls-4" d="M898.5,738.7c-90.6,129.7-269.2,161.5-399,70.9-40.6-28.4-73.2-66.8-94.5-111.5l258.6-123.5,234.9,164.1Z"/>
      <path class="cls-9" d="M405,698.1c-68.2-142.8-7.7-313.9,135.1-382.1,38.6-18.4,80.7-27.9,123.5-27.9v286.5l-258.6,123.5Z"/>
      <text class="cls-10" transform="translate(911 375)"><tspan x="0" y="0">75</tspan></text>
      <text class="cls-10" transform="translate(956.9 375)"><tspan x="0" y="0">; </tspan></text>
      <text class="cls-10" transform="translate(979.8 375)"><tspan x="0" y="0">28%</tspan></text>
      <text class="cls-10" transform="translate(956.4 718)"><tspan x="0" y="0">18</tspan></text>
      <text class="cls-10" transform="translate(1002.3 718)"><tspan x="0" y="0">; </tspan></text>
      <text class="cls-10" transform="translate(1025.2 718)"><tspan x="0" y="0">7%</tspan></text>
      <text class="cls-10" transform="translate(540.7 918)"><tspan x="0" y="0">89</tspan></text>
      <text class="cls-10" transform="translate(586.6 918)"><tspan x="0" y="0">; </tspan></text>
      <text class="cls-10" transform="translate(609.5 918)"><tspan x="0" y="0">33%</tspan></text>
      <text class="cls-10" transform="translate(242 412)"><tspan x="0" y="0">86</tspan></text>
      <text class="cls-10" transform="translate(287.9 412)"><tspan x="0" y="0">; </tspan></text>
      <text class="cls-10" transform="translate(310.8 412)"><tspan x="0" y="0">32%</tspan></text>
      <text class="cls-12" transform="translate(236.2 95)"><tspan x="0" y="0">Sei preoccupato per le implicazioni etiche </tspan></text>
      <text class="cls-12" transform="translate(456.5 169)"><tspan x="0" y="0">dell&apos;intelligenza artificiale?</tspan></text>
      <rect class="cls-8" x="1347.5" y="454.5" width="20" height="21"/>
      <text class="cls-11" transform="translate(1376.5 478)"><tspan x="0" y="0">Docente Sì</tspan></text>
      <rect class="cls-3" x="1347.5" y="527.5" width="20" height="21"/>
      <text class="cls-11" transform="translate(1376.5 551)"><tspan x="0" y="0">Docente No</tspan></text>
      <rect class="cls-2" x="1347.5" y="600.5" width="20" height="21"/>
      <text class="cls-11" transform="translate(1376.5 624)"><tspan x="0" y="0">Studente Sì</tspan></text>
      <rect class="cls-5" x="1347.5" y="673.5" width="20" height="21"/>
      <text class="cls-11" transform="translate(1376.5 697)"><tspan x="0" y="0">Studente No</tspan></text>
      <rect class="cls-6" x="1.5" y="1.5" width="1651" height="959"/>
    </g>
  </g>
</svg>