<svg width="1654" height="962" xmlns="http://www.w3.org/2000/svg" xmlns:xlink="http://www.w3.org/1999/xlink" xml:space="preserve" overflow="hidden"><defs><clipPath id="clip0"><rect x="87" y="19806" width="1654" height="962"/></clipPath></defs><g clip-path="url(#clip0)" transform="translate(-87 -19806)"><rect x="88" y="19807" width="1651" height="959" fill="#FFFFFF"/><g><path d="M750.572 20094.1C908.834 20094.1 1037.13 20222.4 1037.13 20380.6 1037.13 20398.5 1035.45 20416.4 1032.11 20434.1L750.572 20380.6Z" stroke="#FFFFFF" stroke-width="6.875" stroke-linejoin="round" stroke-miterlimit="10" fill="#4285F4" fill-rule="evenodd"/></g><g><path d="M1032.11 20434.1C1024.56 20473.8 1008.69 20511.5 985.521 20544.7L750.572 20380.6Z" stroke="#FFFFFF" stroke-width="6.875" stroke-linejoin="round" stroke-miterlimit="10" fill="#EA4335" fill-rule="evenodd"/></g><g><path d="M985.522 20544.7C894.915 20674.4 716.274 20706.2 586.515 20615.6 545.896 20587.2 513.323 20548.8 491.977 20504.1L750.572 20380.6Z" stroke="#FFFFFF" stroke-width="6.875" stroke-linejoin="round" stroke-miterlimit="10" fill="#FBBC04" fill-rule="evenodd"/></g><g><path d="M491.977 20504.1C423.788 20361.3 484.286 20190.2 627.105 20122 665.661 20103.6 707.846 20094.1 750.572 20094.1L750.572 20380.6Z" stroke="#FFFFFF" stroke-width="6.875" stroke-linejoin="round" stroke-miterlimit="10" fill="#34A853" fill-rule="evenodd"/></g><g><text fill="#404040" font-family="Arial,Arial_MSFontService,sans-serif" font-weight="400" font-size="41" transform="matrix(1 0 0 1 998.036 20181)">75</text></g><g><text fill="#404040" font-family="Arial,Arial_MSFontService,sans-serif" font-weight="400" font-size="41" transform="matrix(1 0 0 1 1043.91 20181)">; </text></g><g><text fill="#404040" font-family="Arial,Arial_MSFontService,sans-serif" font-weight="400" font-size="41" transform="matrix(1 0 0 1 1066.83 20181)">28%</text></g><g><text fill="#404040" font-family="Arial,Arial_MSFontService,sans-serif" font-weight="400" font-size="41" transform="matrix(1 0 0 1 1043.4 20524)">18</text></g><g><text fill="#404040" font-family="Arial,Arial_MSFontService,sans-serif" font-weight="400" font-size="41" transform="matrix(1 0 0 1 1089.28 20524)">; </text></g><g><text fill="#404040" font-family="Arial,Arial_MSFontService,sans-serif" font-weight="400" font-size="41" transform="matrix(1 0 0 1 1112.19 20524)">7%</text></g><g><text fill="#404040" font-family="Arial,Arial_MSFontService,sans-serif" font-weight="400" font-size="41" transform="matrix(1 0 0 1 627.719 20724)">89</text></g><g><text fill="#404040" font-family="Arial,Arial_MSFontService,sans-serif" font-weight="400" font-size="41" transform="matrix(1 0 0 1 673.598 20724)">; </text></g><g><text fill="#404040" font-family="Arial,Arial_MSFontService,sans-serif" font-weight="400" font-size="41" transform="matrix(1 0 0 1 696.515 20724)">33%</text></g><g><text fill="#404040" font-family="Arial,Arial_MSFontService,sans-serif" font-weight="400" font-size="41" transform="matrix(1 0 0 1 329 20218)">86</text></g><g><text fill="#404040" font-family="Arial,Arial_MSFontService,sans-serif" font-weight="400" font-size="41" transform="matrix(1 0 0 1 374.88 20218)">; </text></g><g><text fill="#404040" font-family="Arial,Arial_MSFontService,sans-serif" font-weight="400" font-size="41" transform="matrix(1 0 0 1 397.796 20218)">32%</text></g><g><text fill="#595959" font-family="Arial,Arial_MSFontService,sans-serif" font-weight="400" font-size="64" transform="matrix(1 0 0 1 323.223 19901)">Sei preoccupato per le implicazioni etiche </text></g><g><text fill="#595959" font-family="Arial,Arial_MSFontService,sans-serif" font-weight="400" font-size="64" transform="matrix(1 0 0 1 543.544 19975)">dell'intelligenza artificiale?</text></g><g><rect x="1434.5" y="20260.5" width="19.9999" height="21" stroke="#FFFFFF" stroke-width="6.875" stroke-linejoin="round" stroke-miterlimit="10" fill="#4285F4"/></g><g><text fill="#595959" font-family="Arial,Arial_MSFontService,sans-serif" font-weight="400" font-size="41" transform="matrix(1 0 0 1 1463.54 20284)">Docente Sì</text></g><g><rect x="1434.5" y="20333.5" width="19.9999" height="21" stroke="#FFFFFF" stroke-width="6.875" stroke-linejoin="round" stroke-miterlimit="10" fill="#EA4335"/></g><g><text fill="#595959" font-family="Arial,Arial_MSFontService,sans-serif" font-weight="400" font-size="41" transform="matrix(1 0 0 1 1463.54 20357)">Docente No</text></g><g><rect x="1434.5" y="20406.5" width="19.9999" height="21" stroke="#FFFFFF" stroke-width="6.875" stroke-linejoin="round" stroke-miterlimit="10" fill="#FBBC04"/></g><g><text fill="#595959" font-family="Arial,Arial_MSFontService,sans-serif" font-weight="400" font-size="41" transform="matrix(1 0 0 1 1463.54 20430)">Studente Sì</text></g><g><rect x="1434.5" y="20479.5" width="19.9999" height="21" stroke="#FFFFFF" stroke-width="6.875" stroke-linejoin="round" stroke-miterlimit="10" fill="#34A853"/></g><g><text fill="#595959" font-family="Arial,Arial_MSFontService,sans-serif" font-weight="400" font-size="41" transform="matrix(1 0 0 1 1463.54 20503)">Studente No</text></g><rect x="88.4998" y="19807.5" width="1651" height="959" stroke="#D9D9D9" stroke-width="3.4375" stroke-linejoin="round" stroke-miterlimit="10" fill="none"/></g></svg>