<?xml version="1.0" encoding="UTF-8"?>
<svg id="Livello_1" data-name="Livello 1" xmlns="http://www.w3.org/2000/svg" version="1.1" xmlns:xlink="http://www.w3.org/1999/xlink" viewBox="0 0 1655 962">
  <defs>
    <style>
      .cls-1, .cls-2, .cls-3, .cls-4, .cls-5, .cls-6, .cls-7, .cls-8, .cls-9 {
        stroke-linejoin: round;
      }

      .cls-1, .cls-2, .cls-3, .cls-4, .cls-5, .cls-7, .cls-8, .cls-9 {
        stroke: #fff;
        stroke-width: 6.9px;
      }

      .cls-1, .cls-4, .cls-7, .cls-9 {
        fill-rule: evenodd;
      }

      .cls-1, .cls-8 {
        fill: #4285f4;
      }

      .cls-2, .cls-4 {
        fill: #fbbc04;
      }

      .cls-10 {
        fill: #404040;
      }

      .cls-10, .cls-11 {
        font-size: 41px;
      }

      .cls-10, .cls-11, .cls-12 {
        font-family: ArialMT, Arial;
        isolation: isolate;
      }

      .cls-13, .cls-6 {
        fill: none;
      }

      .cls-13, .cls-14 {
        stroke-width: 0px;
      }

      .cls-3, .cls-7 {
        fill: #ea4335;
      }

      .cls-5, .cls-9 {
        fill: #34a853;
      }

      .cls-11, .cls-12 {
        fill: #595959;
      }

      .cls-15 {
        clip-path: url(#clippath);
      }

      .cls-6 {
        display: none;
        stroke: #d9d9d9;
        stroke-width: 3.4px;
      }

      .cls-14 {
        fill: #fff;
      }

      .cls-12 {
        font-size: 64px;
      }
    </style>
    <clipPath id="clippath">
      <rect class="cls-13" width="1655" height="962"/>
    </clipPath>
  </defs>
  <g class="cls-15">
    <g>
      <rect class="cls-14" x="1" y="1" width="1652" height="959"/>
      <path class="cls-1" d="M664.1,288.6c79.5,0,155.4,33,209.6,91.2l-209.6,195.3v-286.5Z"/>
      <path class="cls-7" d="M873.7,379.7c92.1,98.9,102.7,248.7,25.3,359.5l-234.9-164.1,209.6-195.4Z"/>
      <path class="cls-4" d="M899.1,739.2c-66,94.5-182.2,140.3-295,116.1l60-280.2,234.9,164.1Z"/>
      <path class="cls-9" d="M604.1,855.3c-154.8-33.1-253.3-185.4-220.2-340.2,28.3-132.1,145.1-226.5,280.2-226.5v286.5l-60,280.2Z"/>
      <text class="cls-10" transform="translate(799.7 287)"><tspan x="0" y="0">35</tspan></text>
      <text class="cls-10" transform="translate(845.6 287)"><tspan x="0" y="0">; </tspan></text>
      <text class="cls-10" transform="translate(868.5 287)"><tspan x="0" y="0">13%</tspan></text>
      <text class="cls-10" transform="translate(980 567)"><tspan x="0" y="0">58</tspan></text>
      <text class="cls-10" transform="translate(1025.9 567)"><tspan x="0" y="0">; </tspan></text>
      <text class="cls-10" transform="translate(1048.8 567)"><tspan x="0" y="0">21%</tspan></text>
      <text class="cls-10" transform="translate(790 898)"><tspan x="0" y="0">50</tspan></text>
      <text class="cls-10" transform="translate(835.8 898)"><tspan x="0" y="0">; </tspan></text>
      <text class="cls-10" transform="translate(858.8 898)"><tspan x="0" y="0">19%</tspan></text>
      <text class="cls-10" transform="translate(174.6 556)"><tspan x="0" y="0">125</tspan></text>
      <text class="cls-10" transform="translate(243.4 556)"><tspan x="0" y="0">; </tspan></text>
      <text class="cls-10" transform="translate(266.4 556)"><tspan x="0" y="0">47%</tspan></text>
      <text class="cls-12" transform="translate(249.2 96)"><tspan x="0" y="0">Sei al corrente della presenza delle leggi </tspan></text>
      <text class="cls-12" transform="translate(338.3 170)"><tspan x="0" y="0">Europee sulle AI di questo marzo?</tspan></text>
      <rect class="cls-8" x="1347.5" y="455.5" width="21" height="20"/>
      <text class="cls-11" transform="translate(1377.1 478)"><tspan x="0" y="0">Docente Sì</tspan></text>
      <rect class="cls-3" x="1347.5" y="528.5" width="21" height="20"/>
      <text class="cls-11" transform="translate(1377.1 551)"><tspan x="0" y="0">Docente No</tspan></text>
      <rect class="cls-2" x="1347.5" y="601.5" width="21" height="21"/>
      <text class="cls-11" transform="translate(1377.1 624)"><tspan x="0" y="0">Studente Sì</tspan></text>
      <rect class="cls-5" x="1347.5" y="674.5" width="21" height="21"/>
      <text class="cls-11" transform="translate(1377.1 698)"><tspan x="0" y="0">Studente No</tspan></text>
      <rect class="cls-6" x="1.5" y="1.5" width="1652" height="959"/>
    </g>
  </g>
</svg>