<?xml version="1.0" encoding="UTF-8"?>
<svg id="Livello_1" data-name="Livello 1" xmlns="http://www.w3.org/2000/svg" version="1.1" xmlns:xlink="http://www.w3.org/1999/xlink" viewBox="0 0 1652 971">
  <defs>
    <style>
      .cls-1, .cls-2, .cls-3, .cls-4, .cls-5, .cls-6, .cls-7, .cls-8, .cls-9 {
        stroke-linejoin: round;
      }

      .cls-1, .cls-2, .cls-3, .cls-4, .cls-5, .cls-7, .cls-8, .cls-9 {
        stroke: #fff;
        stroke-width: 6.9px;
      }

      .cls-1, .cls-4, .cls-7, .cls-9 {
        fill-rule: evenodd;
      }

      .cls-1, .cls-8 {
        fill: #4285f4;
      }

      .cls-2, .cls-4 {
        fill: #fbbc04;
      }

      .cls-10 {
        fill: #404040;
      }

      .cls-10, .cls-11 {
        font-size: 41px;
      }

      .cls-10, .cls-11, .cls-12 {
        font-family: ArialMT, Arial;
        isolation: isolate;
      }

      .cls-13, .cls-6 {
        fill: none;
      }

      .cls-13, .cls-14 {
        stroke-width: 0px;
      }

      .cls-3, .cls-7 {
        fill: #ea4335;
      }

      .cls-5, .cls-9 {
        fill: #34a853;
      }

      .cls-11, .cls-12 {
        fill: #595959;
      }

      .cls-15 {
        clip-path: url(#clippath);
      }

      .cls-6 {
        display: none;
        stroke: #d9d9d9;
        stroke-width: 3.4px;
      }

      .cls-14 {
        fill: #fff;
      }

      .cls-12 {
        font-size: 64px;
      }
    </style>
    <clipPath id="clippath">
      <rect class="cls-13" width="1652" height="971"/>
    </clipPath>
  </defs>
  <g class="cls-15">
    <g>
      <rect class="cls-14" x="1" y="1" width="1649" height="968"/>
      <path class="cls-1" d="M662.9,288.6c160.6,0,290.8,130.2,290.8,290.9s-32.9,156.4-91.1,211.3l-199.8-211.3v-290.9Z"/>
      <path class="cls-7" d="M862.7,790.8c-22.7,21.5-48.8,39.2-77.2,52.4l-122.5-263.7,199.8,211.3Z"/>
      <path class="cls-4" d="M785.4,843.2c-145.7,67.7-318.6,4.4-386.3-141.2-46.3-99.6-32.5-216.7,35.5-302.8l228.2,180.3,122.5,263.7Z"/>
      <path class="cls-9" d="M434.7,399.2c55.1-69.8,139.2-110.6,228.2-110.6v290.9l-228.2-180.3Z"/>
      <text class="cls-10" transform="translate(962.4 471)"><tspan x="0" y="0">74</tspan></text>
      <text class="cls-10" transform="translate(1008.3 471)"><tspan x="0" y="0">; </tspan></text>
      <text class="cls-10" transform="translate(1031.2 471)"><tspan x="0" y="0">38%</tspan></text>
      <text class="cls-10" transform="translate(849.8 876)"><tspan x="0" y="0">10</tspan></text>
      <text class="cls-10" transform="translate(895.6 876)"><tspan x="0" y="0">; </tspan></text>
      <text class="cls-10" transform="translate(918.6 876)"><tspan x="0" y="0">5%</tspan></text>
      <text class="cls-10" transform="translate(256.2 806)"><tspan x="0" y="0">83</tspan></text>
      <text class="cls-10" transform="translate(302.1 806)"><tspan x="0" y="0">; </tspan></text>
      <text class="cls-10" transform="translate(325 806)"><tspan x="0" y="0">43%</tspan></text>
      <text class="cls-10" transform="translate(362.8 292)"><tspan x="0" y="0">28</tspan></text>
      <text class="cls-10" transform="translate(408.7 292)"><tspan x="0" y="0">; </tspan></text>
      <text class="cls-10" transform="translate(431.6 292)"><tspan x="0" y="0">14%</tspan></text>
      <text class="cls-12" transform="translate(281.9 95)"><tspan x="0" y="0">Sei preoccupato per la privacy dei dati </tspan></text>
      <text class="cls-12" transform="translate(344.6 169)"><tspan x="0" y="0">nell&apos;era dell&apos;intelligenza artificiale?</tspan></text>
      <rect class="cls-8" x="1345.5" y="459.5" width="21" height="21"/>
      <text class="cls-11" transform="translate(1374.7 483)"><tspan x="0" y="0">Docente Sì</tspan></text>
      <rect class="cls-3" x="1345.5" y="532.5" width="21" height="21"/>
      <text class="cls-11" transform="translate(1374.7 556)"><tspan x="0" y="0">Docente No</tspan></text>
      <rect class="cls-2" x="1345.5" y="605.5" width="21" height="21"/>
      <text class="cls-11" transform="translate(1374.7 629)"><tspan x="0" y="0">Studente Sì</tspan></text>
      <rect class="cls-5" x="1345.5" y="678.5" width="21" height="21"/>
      <text class="cls-11" transform="translate(1374.7 702)"><tspan x="0" y="0">Studente No</tspan></text>
      <rect class="cls-6" x="1.5" y="1.5" width="1649" height="968"/>
    </g>
  </g>
</svg>