<svg width="1652" height="971" xmlns="http://www.w3.org/2000/svg" xmlns:xlink="http://www.w3.org/1999/xlink" xml:space="preserve" overflow="hidden"><defs><clipPath id="clip0"><rect x="63" y="21674" width="1652" height="971"/></clipPath></defs><g clip-path="url(#clip0)" transform="translate(-63 -21674)"><rect x="63.9999" y="21675" width="1649" height="968" fill="#FFFFFF"/><g><path d="M725.903 21962.6C886.51 21962.6 1016.71 22092.8 1016.71 22253.5 1016.71 22333.4 983.775 22409.9 925.655 22464.8L725.903 22253.5Z" stroke="#FFFFFF" stroke-width="6.875" stroke-linejoin="round" stroke-miterlimit="10" fill="#4285F4" fill-rule="evenodd"/></g><g><path d="M925.654 22464.8C902.906 22486.3 876.835 22504 848.448 22517.2L725.903 22253.5Z" stroke="#FFFFFF" stroke-width="6.875" stroke-linejoin="round" stroke-miterlimit="10" fill="#EA4335" fill-rule="evenodd"/></g><g><path d="M848.449 22517.2C702.798 22584.9 529.86 22521.6 462.18 22376 415.92 22276.4 429.662 22159.3 497.71 22073.2L725.903 22253.5Z" stroke="#FFFFFF" stroke-width="6.875" stroke-linejoin="round" stroke-miterlimit="10" fill="#FBBC04" fill-rule="evenodd"/></g><g><path d="M497.71 22073.2C552.86 22003.4 636.934 21962.6 725.903 21962.6L725.903 22253.5Z" stroke="#FFFFFF" stroke-width="6.875" stroke-linejoin="round" stroke-miterlimit="10" fill="#34A853" fill-rule="evenodd"/></g><g><text fill="#404040" font-family="Arial,Arial_MSFontService,sans-serif" font-weight="400" font-size="41" transform="matrix(1 0 0 1 1025.38 22145)">74</text></g><g><text fill="#404040" font-family="Arial,Arial_MSFontService,sans-serif" font-weight="400" font-size="41" transform="matrix(1 0 0 1 1071.26 22145)">; </text></g><g><text fill="#404040" font-family="Arial,Arial_MSFontService,sans-serif" font-weight="400" font-size="41" transform="matrix(1 0 0 1 1094.18 22145)">38%</text></g><g><text fill="#404040" font-family="Arial,Arial_MSFontService,sans-serif" font-weight="400" font-size="41" transform="matrix(1 0 0 1 912.77 22550)">10</text></g><g><text fill="#404040" font-family="Arial,Arial_MSFontService,sans-serif" font-weight="400" font-size="41" transform="matrix(1 0 0 1 958.649 22550)">; </text></g><g><text fill="#404040" font-family="Arial,Arial_MSFontService,sans-serif" font-weight="400" font-size="41" transform="matrix(1 0 0 1 981.566 22550)">5%</text></g><g><text fill="#404040" font-family="Arial,Arial_MSFontService,sans-serif" font-weight="400" font-size="41" transform="matrix(1 0 0 1 319.24 22480)">83</text></g><g><text fill="#404040" font-family="Arial,Arial_MSFontService,sans-serif" font-weight="400" font-size="41" transform="matrix(1 0 0 1 365.119 22480)">; </text></g><g><text fill="#404040" font-family="Arial,Arial_MSFontService,sans-serif" font-weight="400" font-size="41" transform="matrix(1 0 0 1 388.036 22480)">43%</text></g><g><text fill="#404040" font-family="Arial,Arial_MSFontService,sans-serif" font-weight="400" font-size="41" transform="matrix(1 0 0 1 425.806 21966)">28</text></g><g><text fill="#404040" font-family="Arial,Arial_MSFontService,sans-serif" font-weight="400" font-size="41" transform="matrix(1 0 0 1 471.685 21966)">; </text></g><g><text fill="#404040" font-family="Arial,Arial_MSFontService,sans-serif" font-weight="400" font-size="41" transform="matrix(1 0 0 1 494.602 21966)">14%</text></g><g><text fill="#595959" font-family="Arial,Arial_MSFontService,sans-serif" font-weight="400" font-size="64" transform="matrix(1 0 0 1 344.903 21769)">Sei preoccupato per la privacy dei dati </text></g><g><text fill="#595959" font-family="Arial,Arial_MSFontService,sans-serif" font-weight="400" font-size="64" transform="matrix(1 0 0 1 407.557 21843)">nell'era dell'intelligenza artificiale?</text></g><g><rect x="1408.5" y="22133.5" width="21.0004" height="21" stroke="#FFFFFF" stroke-width="6.875" stroke-linejoin="round" stroke-miterlimit="10" fill="#4285F4"/></g><g><text fill="#595959" font-family="Arial,Arial_MSFontService,sans-serif" font-weight="400" font-size="41" transform="matrix(1 0 0 1 1437.66 22157)">Docente Sì</text></g><g><rect x="1408.5" y="22206.5" width="21.0004" height="21" stroke="#FFFFFF" stroke-width="6.875" stroke-linejoin="round" stroke-miterlimit="10" fill="#EA4335"/></g><g><text fill="#595959" font-family="Arial,Arial_MSFontService,sans-serif" font-weight="400" font-size="41" transform="matrix(1 0 0 1 1437.66 22230)">Docente No</text></g><g><rect x="1408.5" y="22279.5" width="21.0004" height="21" stroke="#FFFFFF" stroke-width="6.875" stroke-linejoin="round" stroke-miterlimit="10" fill="#FBBC04"/></g><g><text fill="#595959" font-family="Arial,Arial_MSFontService,sans-serif" font-weight="400" font-size="41" transform="matrix(1 0 0 1 1437.66 22303)">Studente Sì</text></g><g><rect x="1408.5" y="22352.5" width="21.0004" height="21" stroke="#FFFFFF" stroke-width="6.875" stroke-linejoin="round" stroke-miterlimit="10" fill="#34A853"/></g><g><text fill="#595959" font-family="Arial,Arial_MSFontService,sans-serif" font-weight="400" font-size="41" transform="matrix(1 0 0 1 1437.66 22376)">Studente No</text></g><rect x="64.5001" y="21675.5" width="1649" height="968" stroke="#D9D9D9" stroke-width="3.4375" stroke-linejoin="round" stroke-miterlimit="10" fill="none"/></g></svg>