<?xml version="1.0" encoding="UTF-8"?>
<svg id="Livello_1" data-name="Livello 1" xmlns="http://www.w3.org/2000/svg" version="1.1" xmlns:xlink="http://www.w3.org/1999/xlink" viewBox="0 0 1652 976">
  <defs>
    <style>
      .cls-1 {
        fill: #4285f4;
      }

      .cls-1, .cls-2, .cls-3, .cls-4 {
        stroke-width: 0px;
      }

      .cls-5 {
        fill: #404040;
      }

      .cls-5, .cls-6 {
        font-size: 41px;
      }

      .cls-5, .cls-6, .cls-7 {
        font-family: ArialMT, Arial;
        isolation: isolate;
      }

      .cls-2, .cls-8, .cls-9 {
        fill: none;
      }

      .cls-8, .cls-9 {
        stroke: #d9d9d9;
        stroke-linejoin: round;
        stroke-width: 3.4px;
      }

      .cls-6, .cls-7 {
        fill: #595959;
      }

      .cls-10 {
        clip-path: url(#clippath);
      }

      .cls-9 {
        display: none;
      }

      .cls-3 {
        fill: #fff;
      }

      .cls-4 {
        fill: #ea4335;
      }

      .cls-7 {
        font-size: 64px;
      }
    </style>
    <clipPath id="clippath">
      <rect class="cls-2" width="1652" height="976"/>
    </clipPath>
  </defs>
  <g class="cls-10">
    <g>
      <rect class="cls-3" x="1" y="1" width="1649" height="973"/>
      <path class="cls-8" d="M112.5,696.6h1488M112.5,620.6h1488M112.5,544.6h1488M112.5,468.6h1488M112.5,392.6h1488M112.5,316.6h1488M112.5,240.5h1488"/>
      <path class="cls-1" d="M185.1,719.1h67v53.9h-67v-53.9ZM483.1,651.1h66v121.9h-66v-121.9ZM780.1,354.1h67v418.9h-67v-418.9ZM1078.1,316.1h67v456.9h-67v-456.9ZM1375.1,491.1h67v281.9h-67v-281.9Z"/>
      <path class="cls-4" d="M270.1,742.1h66v30.9h-66v-30.9ZM567.1,727.1h67v45.9h-67v-45.9ZM865.1,499.1h67v273.9h-67v-273.9ZM1163.1,582.1h66v190.9h-66v-190.9ZM1460.1,605.1h67v167.9h-67v-167.9Z"/>
      <path class="cls-8" d="M112.5,772.5h1488"/>
      <text class="cls-5" transform="translate(207 690)"><tspan x="0" y="0">7</tspan></text>
      <text class="cls-5" transform="translate(493.1 622)"><tspan x="0" y="0">16</tspan></text>
      <text class="cls-5" transform="translate(790.7 325)"><tspan x="0" y="0">55</tspan></text>
      <text class="cls-5" transform="translate(1088.3 287)"><tspan x="0" y="0">60</tspan></text>
      <text class="cls-5" transform="translate(1385.9 462)"><tspan x="0" y="0">37</tspan></text>
      <text class="cls-5" transform="translate(291.7 713)"><tspan x="0" y="0">4</tspan></text>
      <text class="cls-5" transform="translate(589.3 698)"><tspan x="0" y="0">6</tspan></text>
      <text class="cls-5" transform="translate(875.4 470)"><tspan x="0" y="0">36</tspan></text>
      <text class="cls-5" transform="translate(1173.1 553)"><tspan x="0" y="0">25</tspan></text>
      <text class="cls-5" transform="translate(1470.6 576)"><tspan x="0" y="0">22</tspan></text>
      <text class="cls-6" transform="translate(53.6 785)"><tspan x="0" y="0">0</tspan></text>
      <text class="cls-6" transform="translate(30.7 709)"><tspan x="0" y="0">10</tspan></text>
      <text class="cls-6" transform="translate(30.7 633)"><tspan x="0" y="0">20</tspan></text>
      <text class="cls-6" transform="translate(30.7 557)"><tspan x="0" y="0">30</tspan></text>
      <text class="cls-6" transform="translate(30.7 481)"><tspan x="0" y="0">40</tspan></text>
      <text class="cls-6" transform="translate(30.7 405)"><tspan x="0" y="0">50</tspan></text>
      <text class="cls-6" transform="translate(30.7 329)"><tspan x="0" y="0">60</tspan></text>
      <text class="cls-6" transform="translate(30.7 253)"><tspan x="0" y="0">70</tspan></text>
      <text class="cls-6" transform="translate(249.3 835)"><tspan x="0" y="0">1</tspan></text>
      <text class="cls-6" transform="translate(546.9 835)"><tspan x="0" y="0">2</tspan></text>
      <text class="cls-6" transform="translate(844.5 835)"><tspan x="0" y="0">3</tspan></text>
      <text class="cls-6" transform="translate(1142.1 835)"><tspan x="0" y="0">4</tspan></text>
      <text class="cls-6" transform="translate(1439.8 835)"><tspan x="0" y="0">5</tspan></text>
      <text class="cls-7" transform="translate(263.2 95)"><tspan x="0" y="0">Quanto credi che l&apos;intelligenza artificiale </tspan></text>
      <text class="cls-7" transform="translate(344.3 169)"><tspan x="0" y="0">possa migliorare i servizi sanitari?</tspan></text>
      <rect class="cls-1" x="625" y="900" width="21" height="20"/>
      <text class="cls-6" transform="translate(654.6 923)"><tspan x="0" y="0">Studente</tspan></text>
      <rect class="cls-4" x="859" y="900" width="20" height="20"/>
      <text class="cls-6" transform="translate(888 923)"><tspan x="0" y="0">Docente</tspan></text>
      <rect class="cls-9" x="1.5" y="1.5" width="1649" height="973"/>
    </g>
  </g>
</svg>