<svg width="1652" height="976" xmlns="http://www.w3.org/2000/svg" xmlns:xlink="http://www.w3.org/1999/xlink" xml:space="preserve" overflow="hidden"><defs><clipPath id="clip0"><rect x="1805" y="1237" width="1652" height="976"/></clipPath></defs><g clip-path="url(#clip0)" transform="translate(-1805 -1237)"><rect x="1806" y="1238" width="1649" height="973" fill="#FFFFFF"/><g><path d="M1917.5 1933.56 3405.5 1933.56M1917.5 1857.56 3405.5 1857.56M1917.5 1781.56 3405.5 1781.56M1917.5 1705.56 3405.5 1705.56M1917.5 1629.55 3405.5 1629.55M1917.5 1553.55 3405.5 1553.55M1917.5 1477.5 3405.5 1477.5" stroke="#D9D9D9" stroke-width="3.4375" stroke-linejoin="round" stroke-miterlimit="10" fill="none"/></g><g><path d="M1990.07 1956.06 2057.07 1956.06 2057.07 2010 1990.07 2010ZM2288.08 1888.06 2354.08 1888.06 2354.08 2010 2288.08 2010ZM2585.08 1591.05 2652.09 1591.05 2652.09 2010 2585.08 2010ZM2883.09 1553.05 2950.1 1553.05 2950.1 2010 2883.09 2010ZM3180.1 1728.06 3247.11 1728.06 3247.11 2010 3180.1 2010Z" fill="#4285F4"/></g><g><path d="M2075.07 1979.06 2141.07 1979.06 2141.07 2010 2075.07 2010ZM2372.08 1964.06 2439.08 1964.06 2439.08 2010 2372.08 2010ZM2670.09 1736.06 2737.09 1736.06 2737.09 2010 2670.09 2010ZM2968.1 1819.06 3034.1 1819.06 3034.1 2010 2968.1 2010ZM3265.11 1842.06 3332.11 1842.06 3332.11 2010 3265.11 2010Z" fill="#EA4335"/></g><g><path d="M1917.5 2009.5 3405.5 2009.5" stroke="#D9D9D9" stroke-width="3.4375" stroke-linejoin="round" stroke-miterlimit="10" fill="none" fill-rule="evenodd"/></g><g><text fill="#404040" font-family="Arial,Arial_MSFontService,sans-serif" font-weight="400" font-size="41" transform="matrix(1 0 0 1 2011.97 1927)">7</text></g><g><text fill="#404040" font-family="Arial,Arial_MSFontService,sans-serif" font-weight="400" font-size="41" transform="matrix(1 0 0 1 2298.1 1859)">16</text></g><g><text fill="#404040" font-family="Arial,Arial_MSFontService,sans-serif" font-weight="400" font-size="41" transform="matrix(1 0 0 1 2595.7 1562)">55</text></g><g><text fill="#404040" font-family="Arial,Arial_MSFontService,sans-serif" font-weight="400" font-size="41" transform="matrix(1 0 0 1 2893.3 1524)">60</text></g><g><text fill="#404040" font-family="Arial,Arial_MSFontService,sans-serif" font-weight="400" font-size="41" transform="matrix(1 0 0 1 3190.91 1699)">37</text></g><g><text fill="#404040" font-family="Arial,Arial_MSFontService,sans-serif" font-weight="400" font-size="41" transform="matrix(1 0 0 1 2096.71 1950)">4</text></g><g><text fill="#404040" font-family="Arial,Arial_MSFontService,sans-serif" font-weight="400" font-size="41" transform="matrix(1 0 0 1 2394.31 1935)">6</text></g><g><text fill="#404040" font-family="Arial,Arial_MSFontService,sans-serif" font-weight="400" font-size="41" transform="matrix(1 0 0 1 2680.44 1707)">36</text></g><g><text fill="#404040" font-family="Arial,Arial_MSFontService,sans-serif" font-weight="400" font-size="41" transform="matrix(1 0 0 1 2978.05 1790)">25</text></g><g><text fill="#404040" font-family="Arial,Arial_MSFontService,sans-serif" font-weight="400" font-size="41" transform="matrix(1 0 0 1 3275.65 1813)">22</text></g><g><text fill="#595959" font-family="Arial,Arial_MSFontService,sans-serif" font-weight="400" font-size="41" transform="matrix(1 0 0 1 1858.59 2022)">0</text></g><g><text fill="#595959" font-family="Arial,Arial_MSFontService,sans-serif" font-weight="400" font-size="41" transform="matrix(1 0 0 1 1835.65 1946)">10</text></g><g><text fill="#595959" font-family="Arial,Arial_MSFontService,sans-serif" font-weight="400" font-size="41" transform="matrix(1 0 0 1 1835.65 1870)">20</text></g><g><text fill="#595959" font-family="Arial,Arial_MSFontService,sans-serif" font-weight="400" font-size="41" transform="matrix(1 0 0 1 1835.65 1794)">30</text></g><g><text fill="#595959" font-family="Arial,Arial_MSFontService,sans-serif" font-weight="400" font-size="41" transform="matrix(1 0 0 1 1835.65 1718)">40</text></g><g><text fill="#595959" font-family="Arial,Arial_MSFontService,sans-serif" font-weight="400" font-size="41" transform="matrix(1 0 0 1 1835.65 1642)">50</text></g><g><text fill="#595959" font-family="Arial,Arial_MSFontService,sans-serif" font-weight="400" font-size="41" transform="matrix(1 0 0 1 1835.65 1566)">60</text></g><g><text fill="#595959" font-family="Arial,Arial_MSFontService,sans-serif" font-weight="400" font-size="41" transform="matrix(1 0 0 1 1835.65 1490)">70</text></g><g><text fill="#595959" font-family="Arial,Arial_MSFontService,sans-serif" font-weight="400" font-size="41" transform="matrix(1 0 0 1 2054.34 2072)">1</text></g><g><text fill="#595959" font-family="Arial,Arial_MSFontService,sans-serif" font-weight="400" font-size="41" transform="matrix(1 0 0 1 2351.94 2072)">2</text></g><g><text fill="#595959" font-family="Arial,Arial_MSFontService,sans-serif" font-weight="400" font-size="41" transform="matrix(1 0 0 1 2649.54 2072)">3</text></g><g><text fill="#595959" font-family="Arial,Arial_MSFontService,sans-serif" font-weight="400" font-size="41" transform="matrix(1 0 0 1 2947.15 2072)">4</text></g><g><text fill="#595959" font-family="Arial,Arial_MSFontService,sans-serif" font-weight="400" font-size="41" transform="matrix(1 0 0 1 3244.75 2072)">5</text></g><g><text fill="#595959" font-family="Arial,Arial_MSFontService,sans-serif" font-weight="400" font-size="64" transform="matrix(1 0 0 1 2068.16 1332)">Quanto credi che l'intelligenza artificiale </text></g><g><text fill="#595959" font-family="Arial,Arial_MSFontService,sans-serif" font-weight="400" font-size="64" transform="matrix(1 0 0 1 2149.28 1406)">possa migliorare i servizi sanitari?</text></g><g><rect x="2430" y="2137" width="21" height="20" fill="#4285F4"/></g><g><text fill="#595959" font-family="Arial,Arial_MSFontService,sans-serif" font-weight="400" font-size="41" transform="matrix(1 0 0 1 2459.59 2160)">Studente</text></g><g><rect x="2664" y="2137" width="20" height="20" fill="#EA4335"/></g><g><text fill="#595959" font-family="Arial,Arial_MSFontService,sans-serif" font-weight="400" font-size="41" transform="matrix(1 0 0 1 2692.96 2160)">Docente</text></g><rect x="1806.5" y="1238.5" width="1649" height="973" stroke="#D9D9D9" stroke-width="3.4375" stroke-linejoin="round" stroke-miterlimit="10" fill="none"/></g></svg>