<?xml version="1.0" encoding="UTF-8"?>
<svg id="Livello_1" data-name="Livello 1" xmlns="http://www.w3.org/2000/svg" version="1.1" xmlns:xlink="http://www.w3.org/1999/xlink" viewBox="0 0 1652 1014">
  <defs>
    <style>
      .cls-1 {
        fill: #4285f4;
      }

      .cls-1, .cls-2, .cls-3, .cls-4 {
        stroke-width: 0px;
      }

      .cls-5 {
        fill: #404040;
      }

      .cls-5, .cls-6 {
        font-size: 41px;
      }

      .cls-5, .cls-6, .cls-7 {
        font-family: ArialMT, Arial;
        isolation: isolate;
      }

      .cls-2, .cls-8, .cls-9 {
        fill: none;
      }

      .cls-8, .cls-9 {
        stroke: #d9d9d9;
        stroke-linejoin: round;
        stroke-width: 3.4px;
      }

      .cls-6, .cls-7 {
        fill: #595959;
      }

      .cls-10 {
        clip-path: url(#clippath);
      }

      .cls-9 {
        display: none;
      }

      .cls-3 {
        fill: #fff;
      }

      .cls-4 {
        fill: #ea4335;
      }

      .cls-7 {
        font-size: 64px;
      }
    </style>
    <clipPath id="clippath">
      <rect class="cls-2" width="1652" height="1014"/>
    </clipPath>
  </defs>
  <g class="cls-10">
    <g>
      <rect class="cls-3" x="1" y="1" width="1649" height="1011"/>
      <path class="cls-8" d="M112.5,729.6h1487M112.5,647.6h1487M112.5,566.6h1487M112.5,484.6h1487M112.5,403.6h1487M112.5,321.6h1487M112.5,240.5h1487"/>
      <path class="cls-1" d="M185.1,802.1h67v8.9h-67v-8.9ZM483.1,762.1h66v48.9h-66v-48.9ZM780.1,477.1h67v333.9h-67v-333.9ZM1077.1,306.1h67v504.9h-67v-504.9ZM1375.2,281.1h66v529.9h-66V281.1Z"/>
      <path class="cls-4" d="M270.1,762.1h67v48.9h-67v-48.9ZM567.1,770.1h67v40.9h-67v-40.9ZM865.1,582.1h66v228.9h-66v-228.9ZM1162.1,582.1h67v228.9h-67v-228.9ZM1459.2,599.1h67v211.9h-67v-211.9Z"/>
      <path class="cls-8" d="M112.5,810.5h1487"/>
      <path class="cls-8" d="M112.5,810.5v13M409.6,810.5v13M707.6,810.5v13M1004.6,810.5v13M1301.7,810.5v13M1599.5,810.5v13"/>
      <text class="cls-5" transform="translate(207.3 773)"><tspan x="0" y="0">1</tspan></text>
      <text class="cls-5" transform="translate(504.6 733)"><tspan x="0" y="0">6</tspan></text>
      <text class="cls-5" transform="translate(790.6 448)"><tspan x="0" y="0">41</tspan></text>
      <text class="cls-5" transform="translate(1087.9 277)"><tspan x="0" y="0">62</tspan></text>
      <text class="cls-5" transform="translate(1385.3 252)"><tspan x="0" y="0">65</tspan></text>
      <text class="cls-5" transform="translate(292 733)"><tspan x="0" y="0">6</tspan></text>
      <text class="cls-5" transform="translate(589.3 741)"><tspan x="0" y="0">5</tspan></text>
      <text class="cls-5" transform="translate(875.2 553)"><tspan x="0" y="0">28</tspan></text>
      <text class="cls-5" transform="translate(1172.6 553)"><tspan x="0" y="0">28</tspan></text>
      <text class="cls-5" transform="translate(1470 570)"><tspan x="0" y="0">26</tspan></text>
      <text class="cls-6" transform="translate(54 823)"><tspan x="0" y="0">0</tspan></text>
      <text class="cls-6" transform="translate(31.1 742)"><tspan x="0" y="0">10</tspan></text>
      <text class="cls-6" transform="translate(31.1 660)"><tspan x="0" y="0">20</tspan></text>
      <text class="cls-6" transform="translate(31.1 579)"><tspan x="0" y="0">30</tspan></text>
      <text class="cls-6" transform="translate(31.1 498)"><tspan x="0" y="0">40</tspan></text>
      <text class="cls-6" transform="translate(31.1 416)"><tspan x="0" y="0">50</tspan></text>
      <text class="cls-6" transform="translate(31.1 335)"><tspan x="0" y="0">60</tspan></text>
      <text class="cls-6" transform="translate(31.1 253)"><tspan x="0" y="0">70</tspan></text>
      <text class="cls-6" transform="translate(249.6 872)"><tspan x="0" y="0">1</tspan></text>
      <text class="cls-6" transform="translate(547 872)"><tspan x="0" y="0">2</tspan></text>
      <text class="cls-6" transform="translate(844.4 872)"><tspan x="0" y="0">3</tspan></text>
      <text class="cls-6" transform="translate(1141.7 872)"><tspan x="0" y="0">4</tspan></text>
      <text class="cls-6" transform="translate(1439.1 872)"><tspan x="0" y="0">5</tspan></text>
      <text class="cls-7" transform="translate(255.8 96)"><tspan x="0" y="0">Quanto pensi che l&apos;intelligenza artificiale </tspan></text>
      <text class="cls-7" transform="translate(228.2 170)"><tspan x="0" y="0">possa migliorare la sicurezza informatica?</tspan></text>
      <rect class="cls-1" x="625" y="938" width="21" height="20"/>
      <text class="cls-6" transform="translate(654.4 961)"><tspan x="0" y="0">Studente</tspan></text>
      <rect class="cls-4" x="858" y="938" width="21" height="20"/>
      <text class="cls-6" transform="translate(887.8 961)"><tspan x="0" y="0">Docente</tspan></text>
      <rect class="cls-9" x="1.5" y="1.5" width="1649" height="1011"/>
    </g>
  </g>
</svg>