<svg width="1652" height="1014" xmlns="http://www.w3.org/2000/svg" xmlns:xlink="http://www.w3.org/1999/xlink" xml:space="preserve" overflow="hidden"><defs><clipPath id="clip0"><rect x="3458" y="1223" width="1652" height="1014"/></clipPath></defs><g clip-path="url(#clip0)" transform="translate(-3458 -1223)"><rect x="3459" y="1224" width="1649" height="1011" fill="#FFFFFF"/><g><path d="M3570.5 1952.56 5057.5 1952.56M3570.5 1870.56 5057.5 1870.56M3570.5 1789.56 5057.5 1789.56M3570.5 1707.56 5057.5 1707.56M3570.5 1626.55 5057.5 1626.55M3570.5 1544.55 5057.5 1544.55M3570.5 1463.5 5057.5 1463.5" stroke="#D9D9D9" stroke-width="3.4375" stroke-linejoin="round" stroke-miterlimit="10" fill="none"/></g><g><path d="M3643.12 2025.07 3710.12 2025.07 3710.12 2034 3643.12 2034ZM3941.13 1985.07 4007.13 1985.07 4007.13 2034 3941.13 2034ZM4238.14 1700.06 4305.14 1700.06 4305.14 2034 4238.14 2034ZM4535.15 1529.05 4602.15 1529.05 4602.15 2034 4535.15 2034ZM4833.16 1504.05 4899.16 1504.05 4899.16 2034 4833.16 2034Z" fill="#4285F4"/></g><g><path d="M3728.12 1985.07 3795.12 1985.07 3795.12 2034 3728.12 2034ZM4025.13 1993.07 4092.13 1993.07 4092.13 2034 4025.13 2034ZM4323.14 1805.06 4389.14 1805.06 4389.14 2034 4323.14 2034ZM4620.15 1805.06 4687.15 1805.06 4687.15 2034 4620.15 2034ZM4917.16 1822.06 4984.16 1822.06 4984.16 2034 4917.16 2034Z" fill="#EA4335"/></g><g><path d="M3570.5 2033.5 5057.5 2033.5" stroke="#D9D9D9" stroke-width="3.4375" stroke-linejoin="round" stroke-miterlimit="10" fill="none" fill-rule="evenodd"/></g><g><path d="M3570.5 2033.5 3570.5 2046.5M3867.63 2033.5 3867.63 2046.5M4165.64 2033.5 4165.64 2046.5M4462.65 2033.5 4462.65 2046.5M4759.66 2033.5 4759.66 2046.5M5057.5 2033.5 5057.5 2046.5" stroke="#D9D9D9" stroke-width="3.4375" stroke-linejoin="round" stroke-miterlimit="10" fill="none"/></g><g><text fill="#404040" font-family="Arial,Arial_MSFontService,sans-serif" font-weight="400" font-size="41" transform="matrix(1 0 0 1 3665.28 1996)">1</text></g><g><text fill="#404040" font-family="Arial,Arial_MSFontService,sans-serif" font-weight="400" font-size="41" transform="matrix(1 0 0 1 3962.65 1956)">6</text></g><g><text fill="#404040" font-family="Arial,Arial_MSFontService,sans-serif" font-weight="400" font-size="41" transform="matrix(1 0 0 1 4248.56 1671)">41</text></g><g><text fill="#404040" font-family="Arial,Arial_MSFontService,sans-serif" font-weight="400" font-size="41" transform="matrix(1 0 0 1 4545.93 1500)">62</text></g><g><text fill="#404040" font-family="Arial,Arial_MSFontService,sans-serif" font-weight="400" font-size="41" transform="matrix(1 0 0 1 4843.3 1475)">65</text></g><g><text fill="#404040" font-family="Arial,Arial_MSFontService,sans-serif" font-weight="400" font-size="41" transform="matrix(1 0 0 1 3749.96 1956)">6</text></g><g><text fill="#404040" font-family="Arial,Arial_MSFontService,sans-serif" font-weight="400" font-size="41" transform="matrix(1 0 0 1 4047.33 1964)">5</text></g><g><text fill="#404040" font-family="Arial,Arial_MSFontService,sans-serif" font-weight="400" font-size="41" transform="matrix(1 0 0 1 4333.24 1776)">28</text></g><g><text fill="#404040" font-family="Arial,Arial_MSFontService,sans-serif" font-weight="400" font-size="41" transform="matrix(1 0 0 1 4630.61 1776)">28</text></g><g><text fill="#404040" font-family="Arial,Arial_MSFontService,sans-serif" font-weight="400" font-size="41" transform="matrix(1 0 0 1 4927.98 1793)">26</text></g><g><text fill="#595959" font-family="Arial,Arial_MSFontService,sans-serif" font-weight="400" font-size="41" transform="matrix(1 0 0 1 3511.99 2046)">0</text></g><g><text fill="#595959" font-family="Arial,Arial_MSFontService,sans-serif" font-weight="400" font-size="41" transform="matrix(1 0 0 1 3489.05 1965)">10</text></g><g><text fill="#595959" font-family="Arial,Arial_MSFontService,sans-serif" font-weight="400" font-size="41" transform="matrix(1 0 0 1 3489.05 1883)">20</text></g><g><text fill="#595959" font-family="Arial,Arial_MSFontService,sans-serif" font-weight="400" font-size="41" transform="matrix(1 0 0 1 3489.05 1802)">30</text></g><g><text fill="#595959" font-family="Arial,Arial_MSFontService,sans-serif" font-weight="400" font-size="41" transform="matrix(1 0 0 1 3489.05 1721)">40</text></g><g><text fill="#595959" font-family="Arial,Arial_MSFontService,sans-serif" font-weight="400" font-size="41" transform="matrix(1 0 0 1 3489.05 1639)">50</text></g><g><text fill="#595959" font-family="Arial,Arial_MSFontService,sans-serif" font-weight="400" font-size="41" transform="matrix(1 0 0 1 3489.05 1558)">60</text></g><g><text fill="#595959" font-family="Arial,Arial_MSFontService,sans-serif" font-weight="400" font-size="41" transform="matrix(1 0 0 1 3489.05 1476)">70</text></g><g><text fill="#595959" font-family="Arial,Arial_MSFontService,sans-serif" font-weight="400" font-size="41" transform="matrix(1 0 0 1 3707.62 2095)">1</text></g><g><text fill="#595959" font-family="Arial,Arial_MSFontService,sans-serif" font-weight="400" font-size="41" transform="matrix(1 0 0 1 4004.99 2095)">2</text></g><g><text fill="#595959" font-family="Arial,Arial_MSFontService,sans-serif" font-weight="400" font-size="41" transform="matrix(1 0 0 1 4302.37 2095)">3</text></g><g><text fill="#595959" font-family="Arial,Arial_MSFontService,sans-serif" font-weight="400" font-size="41" transform="matrix(1 0 0 1 4599.74 2095)">4</text></g><g><text fill="#595959" font-family="Arial,Arial_MSFontService,sans-serif" font-weight="400" font-size="41" transform="matrix(1 0 0 1 4897.11 2095)">5</text></g><g><text fill="#595959" font-family="Arial,Arial_MSFontService,sans-serif" font-weight="400" font-size="64" transform="matrix(1 0 0 1 3713.83 1319)">Quanto pensi che l'intelligenza artificiale </text></g><g><text fill="#595959" font-family="Arial,Arial_MSFontService,sans-serif" font-weight="400" font-size="64" transform="matrix(1 0 0 1 3686.19 1393)">possa migliorare la sicurezza informatica?</text></g><g><rect x="4083" y="2161" width="21" height="20" fill="#4285F4"/></g><g><text fill="#595959" font-family="Arial,Arial_MSFontService,sans-serif" font-weight="400" font-size="41" transform="matrix(1 0 0 1 4112.41 2184)">Studente</text></g><g><rect x="4316" y="2161" width="21" height="20" fill="#EA4335"/></g><g><text fill="#595959" font-family="Arial,Arial_MSFontService,sans-serif" font-weight="400" font-size="41" transform="matrix(1 0 0 1 4345.79 2184)">Docente</text></g><rect x="3459.5" y="1224.5" width="1649" height="1011" stroke="#D9D9D9" stroke-width="3.4375" stroke-linejoin="round" stroke-miterlimit="10" fill="none"/></g></svg>