<?xml version="1.0" encoding="UTF-8" standalone="no"?>
<!-- Created with Inkscape (http://www.inkscape.org/) -->

<svg
   width="32.098mm"
   height="32.098mm"
   viewBox="0 0 32.098 32.098"
   version="1.1"
   id="svg1"
   inkscape:version="1.3 (0e150ed6c4, 2023-07-21)"
   xmlns:inkscape="http://www.inkscape.org/namespaces/inkscape"
   xmlns:sodipodi="http://sodipodi.sourceforge.net/DTD/sodipodi-0.dtd"
   xmlns="http://www.w3.org/2000/svg"
   xmlns:svg="http://www.w3.org/2000/svg">
  <sodipodi:namedview
     id="namedview1"
     pagecolor="#e6e6e6"
     bordercolor="#000000"
     borderopacity="1"
     inkscape:showpageshadow="0"
     inkscape:pageopacity="0"
     inkscape:pagecheckerboard="false"
     inkscape:deskcolor="#505050"
     inkscape:document-units="mm"
     showborder="true"
     showguides="true" />
  <defs
     id="defs1" />
  <g
     inkscape:label="Layer 1"
     inkscape:groupmode="layer"
     id="layer1"
     transform="translate(-1.9486791,-1.0558873)">
    <rect
       style="fill:#343434;fill-opacity:0;fill-rule:evenodd;stroke-width:0.385988;stroke-linecap:square;stroke-miterlimit:0;stroke-dashoffset:1607.84"
       id="rect3"
       width="32.098"
       height="32.098"
       x="1.9486792"
       y="1.0558873" />
    <path
       id="path3"
       style="fill:#f7fff7;fill-opacity:1;fill-rule:evenodd;stroke-width:0.34031;stroke-linecap:square;stroke-miterlimit:0;stroke-dashoffset:1607.84"
       d="M 17.222955,9.3325103 V 12.8062 h 5.414656 v 11.187431 h 1.736845 v 2.795178 h -1.736845 v 3.47369 h 1.736845 v -1.736845 h 1.736845 V 9.3325103 Z"
       sodipodi:nodetypes="ccccccccccccc" />
    <path
       id="path7"
       style="fill:#578fc7;fill-opacity:1;fill-rule:evenodd;stroke-width:0.496054;stroke-linecap:square;stroke-miterlimit:0;stroke-dashoffset:1607.84"
       d="m 17.223769,14.745823 v 1.617362 A 5.4031829,7.7583455 0 0 0 14.396345,14.77407 5.4031829,7.7583455 0 0 0 13.667393,14.75493 5.4031829,7.7583455 0 0 0 8.6112,21.185199 a 5.4031829,7.7583455 0 0 0 3.955475,8.823966 5.4031829,7.7583455 0 0 0 4.657094,-1.364962 v 1.611896 h 3.473454 V 14.745823 Z m -2.639719,2.876628 a 3.6524254,4.8872261 0 0 1 0.492043,0.01186 3.6524254,4.8872261 0 0 1 2.147676,1.258353 v 7.222094 a 3.6524254,4.8872261 0 0 1 -3.384161,1.117106 3.6524254,4.8872261 0 0 1 -2.674343,-5.55826 3.6524254,4.8872261 0 0 1 3.418785,-4.051153 z" />
    <path
       style="fill:#28e053;fill-opacity:1;fill-rule:evenodd;stroke-width:0.34031;stroke-linecap:square;stroke-miterlimit:0;stroke-dashoffset:1607.84"
       d="m 22.009983,8.140807 -6.2e-5,-1.8243846 h 0.7053 v -1.356537 c 0,-2.3836282 3.285796,-2.422729 3.318458,0 v 1.356537 h 0.705306 l -2e-5,1.8243846 z"
       id="path8"
       sodipodi:nodetypes="ccccccccc" />
    <path
       id="rect8"
       style="fill:#578fc7;fill-opacity:1;fill-rule:evenodd;stroke-width:0.351606;stroke-linecap:square;stroke-miterlimit:0;stroke-dashoffset:1607.84"
       d="m 24.903617,29.583902 h 1.736811 v 1.736811 h -1.736811 z" />
    <path
       id="rect8-65"
       style="fill:#578fc7;fill-opacity:1;fill-rule:evenodd;stroke-width:0.351606;stroke-linecap:square;stroke-miterlimit:0;stroke-dashoffset:1607.84"
       d="m 26.640428,24.522778 h 1.73681 v 1.73681 h -1.73681 z" />
  </g>
</svg>
