<?xml version="1.0" encoding="UTF-8" standalone="no"?>
<svg
   id="visual"
   viewBox="0 0 3991.6428 2065.0486"
   width="3991.6428"
   height="2065.0486"
   version="1.1"
   sodipodi:docname="bkg1.svg"
   inkscape:export-filename="bkg1.svg"
   inkscape:export-xdpi="96"
   inkscape:export-ydpi="96"
   xmlns:inkscape="http://www.inkscape.org/namespaces/inkscape"
   xmlns:sodipodi="http://sodipodi.sourceforge.net/DTD/sodipodi-0.dtd"
   xmlns:xlink="http://www.w3.org/1999/xlink"
   xmlns="http://www.w3.org/2000/svg"
   xmlns:svg="http://www.w3.org/2000/svg">
  <sodipodi:namedview
     id="namedview1"
     pagecolor="#ffffff"
     bordercolor="#000000"
     borderopacity="0.25"
     inkscape:showpageshadow="2"
     inkscape:pageopacity="0.0"
     inkscape:pagecheckerboard="0"
     inkscape:deskcolor="#d1d1d1"
     inkscape:export-bgcolor="#ffffffff" />
  <defs
     id="defs5">
    <linearGradient
       id="swatch22"
       inkscape:swatch="solid">
      <stop
         style="stop-color:#aeaeae;stop-opacity:1;"
         offset="0"
         id="stop22" />
    </linearGradient>
    <linearGradient
       id="swatch21"
       inkscape:swatch="solid">
      <stop
         style="stop-color:#b7b7b7;stop-opacity:1;"
         offset="0"
         id="stop21" />
    </linearGradient>
    <linearGradient
       id="swatch20"
       inkscape:swatch="solid">
      <stop
         style="stop-color:#b1b1b1;stop-opacity:1;"
         offset="0"
         id="stop20" />
    </linearGradient>
    <linearGradient
       id="swatch19"
       inkscape:swatch="solid">
      <stop
         style="stop-color:#9b9b9b;stop-opacity:1;"
         offset="0"
         id="stop19" />
    </linearGradient>
    <linearGradient
       id="swatch18"
       inkscape:swatch="solid">
      <stop
         style="stop-color:#a6a6a6;stop-opacity:1;"
         offset="0"
         id="stop18" />
    </linearGradient>
    <linearGradient
       id="swatch17"
       inkscape:swatch="solid">
      <stop
         style="stop-color:#7a7a7a;stop-opacity:1;"
         offset="0"
         id="stop17" />
    </linearGradient>
    <linearGradient
       id="swatch16"
       inkscape:swatch="solid">
      <stop
         style="stop-color:#f2f2f2;stop-opacity:1;"
         offset="0"
         id="stop16" />
    </linearGradient>
    <linearGradient
       id="swatch15"
       inkscape:swatch="solid">
      <stop
         style="stop-color:#f2f2f2;stop-opacity:1;"
         offset="0"
         id="stop15" />
    </linearGradient>
    <linearGradient
       inkscape:collect="always"
       xlink:href="#swatch17"
       id="linearGradient17"
       x1="230.04883"
       y1="737.53516"
       x2="816.4082"
       y2="737.53516"
       gradientUnits="userSpaceOnUse" />
    <linearGradient
       inkscape:collect="always"
       xlink:href="#swatch18"
       id="linearGradient18"
       x1="563.94092"
       y1="1552.5979"
       x2="1100.0125"
       y2="1552.5979"
       gradientUnits="userSpaceOnUse"
       gradientTransform="translate(176.93155,80.795128)" />
    <linearGradient
       inkscape:collect="always"
       xlink:href="#swatch19"
       id="linearGradient19"
       x1="1499.3053"
       y1="396.77676"
       x2="1999.4174"
       y2="396.77676"
       gradientUnits="userSpaceOnUse" />
    <linearGradient
       inkscape:collect="always"
       xlink:href="#swatch20"
       id="linearGradient20"
       x1="1886.6292"
       y1="1134.7837"
       x2="2304.3386"
       y2="1134.7837"
       gradientUnits="userSpaceOnUse"
       gradientTransform="translate(-38.108602,136.7786)" />
    <linearGradient
       inkscape:collect="always"
       xlink:href="#swatch21"
       id="linearGradient21"
       x1="2615.3928"
       y1="1377.5709"
       x2="3151.3943"
       y2="1377.5709"
       gradientUnits="userSpaceOnUse"
       gradientTransform="translate(164.64803,227.20135)" />
    <linearGradient
       inkscape:collect="always"
       xlink:href="#swatch22"
       id="linearGradient22"
       x1="3019.613"
       y1="398.73373"
       x2="3515.4617"
       y2="398.73373"
       gradientUnits="userSpaceOnUse"
       gradientTransform="translate(101.02886)" />
  </defs>
  <path
     d="M 523.22852,438.93945 A 293.17938,298.59601 0 0 0 230.04883,737.53516 293.17938,298.59601 0 0 0 523.22852,1036.1309 293.17938,298.59601 0 0 0 816.4082,737.53516 293.17938,298.59601 0 0 0 523.22852,438.93945 Z"
     style="fill:#f2f2f2;fill-opacity:1;stroke:url(#linearGradient17)"
     id="path15" />
  <ellipse
     style="fill:#f2f2f2;fill-opacity:1;stroke:url(#linearGradient19)"
     id="path6"
     cx="1749.3613"
     cy="396.77676"
     rx="250.05603"
     ry="240.91765" />
  <ellipse
     style="fill:#f2f2f2;fill-opacity:1;stroke:url(#linearGradient20)"
     id="path7"
     cx="2057.3752"
     cy="1271.5623"
     rx="208.85471"
     ry="200.43272" />
  <ellipse
     style="fill:#f2f2f2;fill-opacity:1;stroke:url(#linearGradient18)"
     id="path11"
     cx="1008.9081"
     cy="1633.3931"
     rx="268.03574"
     ry="268.47256" />
  <ellipse
     style="fill:#f2f2f2;fill-opacity:1;stroke:url(#linearGradient21)"
     id="path12"
     cx="3048.0415"
     cy="1604.7722"
     rx="268.00079"
     ry="266.42822" />
  <ellipse
     style="fill:#f2f2f2;fill-opacity:1"
     id="path13"
     cx="2939.2024"
     cy="1542.3849"
     rx="42.249702"
     ry="77.973236" />
  <ellipse
     style="fill:#f2f2f2;fill-opacity:1;stroke:url(#linearGradient22)"
     id="path14"
     cx="3368.5662"
     cy="398.73373"
     rx="247.92433"
     ry="236.81149" />
  <path
     style="fill:#2b0000"
     d="m 366.57478,642.25181 c -14.23148,1.10209 -24.95214,6.8605 -34.73067,16.74757 -2.82043,2.85174 -6.88586,4.74619 -8.67958,8.33364 -2.10487,4.20973 -4.17305,9.76469 -6.72745,14.10354 -1.73363,2.94471 -1.99198,0.41051 -4.74443,3.16295 -3.33444,3.33445 -7.96297,16.32915 -7.96297,21.28196"
     id="path3" />
  <path
     style="fill:#2b0000"
     d="m 304.7181,722.19661 c 0.16691,-9.03304 -0.20563,-32.56362 5.02242,-37.77007"
     id="path4" />
  <path
     style="fill:#2b0000"
     d="m 343.15536,804.39624 c -5.34055,-3.46213 -6.24524,-10.0234 -9.98306,-14.57305 -13.64231,-16.60526 -6.79954,-6.07802 -16.72904,-17.45182 -4.26326,-4.88337 -8.72703,-9.69551 -12.06493,-15.25258 -0.93009,-1.54846 -0.75356,-3.57764 -1.58147,-5.18304 -2.5913,-5.02477 -6.70053,-9.15691 -9.34677,-14.15297 -2.70795,-5.11258 2.59158,-10.91576 4.58999,-14.64717 0.67672,-1.26357 0,-5.02954 0,-6.40621"
     id="path5" />
  <path
     style="fill:#2b0000"
     d="m 403.49851,788.06875 c -14.30276,2.91349 -29.29524,1.72973 -43.89828,1.72973 -2.6358,0 -5.50438,-1.08304 -7.90738,0 -0.75766,0.34149 -1.11635,1.4003 -1.92742,1.58148 -1.67607,0.37441 -3.49657,-0.45658 -5.15215,0 -0.95549,0.2635 -0.14536,2.11416 -0.79074,2.86642 -0.97085,1.13165 -2.10863,2.10864 -3.16295,3.16295"
     id="path8" />
  <path
     style="fill:#2b0000"
     d="m 407.80432,747.58669 c -8.06013,7.16805 0.0483,27.83384 -3.20001,35.68821 -1.82795,4.41992 -1.58148,1.41179 -1.58148,4.57145"
     id="path9" />
  <path
     style="fill:#2b0000"
     d="m 373.7779,744.84382 c 13.30873,-0.27953 26.30145,-1.60618 39.64807,-1.60618"
     id="path10" />
  <path
     style="fill:#2b0000"
     d="m 450.52268,637.95835 c -16.68811,46.33845 -14.30123,94.92766 -14.30123,143.19144"
     id="path16" />
  <path
     style="fill:#2b0000"
     d="m 460.81462,720.46687 c 7.18359,0.12067 11.84249,-6.1281 18.5638,-7.49965 3.09909,-0.6324 6.35769,0.44731 9.48885,0 3.44138,-0.49163 16.14237,-12.79834 18.15608,-16.20394 0.84847,-1.43494 0.76897,-3.28882 1.58147,-4.74443 1.72813,-3.09595 7.118,-10.48724 4.83091,-14.76455 -4.80207,-8.98084 -13.87352,-15.84881 -22.68428,-20.65184 -2.30884,-1.25862 -5.3769,0.77785 -7.88884,0 -2.94542,-0.91208 -5.45506,-2.90342 -8.32128,-4.04017 -5.14408,-2.04017 -11.45819,1.58147 -16.52517,1.58147"
     id="path17" />
  <path
     style="fill:#2b0000"
     d="m 498.32523,775.73201 c -2.81906,-4.034 -5.64501,-8.06319 -8.45718,-12.10199 -5.46151,-7.84375 -8.95599,-13.32204 -12.93597,-21.31285 -1.15668,-2.32232 -3.67101,-4.17184 -4.74443,-6.34443 -1.23617,-2.50202 -4.22244,-1.80324 -6.26412,-3.10735 -0.67397,-0.4305 -0.93731,-5.39055 -1.58147,-6.04791 -0.35167,-0.35887 -1.09133,0.28175 -1.50735,0 -1.4008,-0.94869 -5.42954,-6.28672 -6.20852,-7.78382"
     id="path18" />
  <path
     style="fill:#2b0000"
     d="m 562.90625,654.65651 c -5.52475,11.62699 -9.13866,25.08803 -11.28037,37.81949 -0.44955,2.67237 0.3739,5.44576 0,8.12977 -1.47194,10.56636 -6.04411,20.51544 -7.14135,31.09204 -0.39633,3.82041 1.64929,19.54404 0,22.23332 -0.43614,0.71116 -1.65009,0.79913 -1.93977,1.58147 -2.1202,5.72589 0,17.79088 0,24.45109"
     id="path19" />
  <path
     style="fill:#2b0000"
     d="m 350.65501,711.97262 c 0.68778,2.66874 0.69281,5.61522 2.06333,8.00622 0.68539,1.19571 2.52077,1.15461 3.64481,1.95213 8.463,6.0046 17.50153,12.64509 28.44801,13.64022 8.38793,0.76254 22.50437,-2.73586 30.04803,3.19384 8.90787,7.00204 -0.91789,1.02402 1.81004,5.12126 2.83874,4.26367 3.1506,2.89809 3.1506,7.83942"
     id="path20" />
  <path
     style="fill:#2b0000"
     d="m 639.44099,669.1616 c -7.40288,7.06663 -4.4013,14.5523 -5.97996,23.2032 -1.51166,8.28378 -10.69908,47.50707 -14.3074,59.04585 -2.83312,9.05983 -6.97351,17.68994 -9.58152,26.81712 -0.61497,2.15223 0.46608,4.52579 0,6.71509 -4.44717,20.88955 -0.33573,1.65792 -6.3259,10.11279 -1.73504,2.44894 -1.58147,7.18404 -1.58147,3.27415"
     id="path21" />
  <path
     style="fill:#2b0000"
     d="m 655.89821,678.46512 c 12.81355,5.6527 4.62157,0.42524 15.98155,17.74835 3.27581,4.99536 6.00237,8.60349 8.77224,13.69582 3.00417,5.52307 7.2989,10.32153 9.95835,16.01861 1.03641,2.22019 0.77621,4.86433 1.58148,7.17841 4.06945,11.6944 7.69457,20.62305 3.32974,33.71754 -2.36012,7.08038 -12.86394,15.53186 -16.95761,21.05339 -2.28734,3.08515 -12.90346,2.59831 -16.29043,5.15215 -2.17527,1.64019 -3.4249,4.39751 -5.76373,5.79462 -6.47531,3.86805 -21.63242,5.84285 -29.65266,8.51278 -4.0725,1.35574 -8.69949,-0.26675 -12.77535,-1.61236 -0.94837,-0.31309 0,-1.99743 0,-2.99615"
     id="path22" />
  <path
     style="fill:#ff0000"
     d="m 685.60029,983.64654 c -16.45068,-36.73507 -37.63425,-70.46298 -60.47289,-103.37657 -18.35949,-26.45853 -36.89158,-56.26771 -58.31071,-81.03823 -21.01328,-24.30119 -18.6396,-15.47 -35.90442,-39.35155 -5.5848,-7.72517 -9.25519,-16.81443 -15.42556,-24.08043 -52.04746,-61.28913 -38.91008,-42.15096 -86.59193,-84.59655 -4.97577,-4.42935 -8.60829,-10.61593 -13.3437,-15.30201 -3.0759,-3.04386 -0.84394,-1.86729 -3.19384,-7.41316 -1.87985,-4.43655 -6.71306,-11.20965 -8.65487,-15.11668 -0.88515,-1.78098 -0.98481,-3.89904 -1.94595,-5.64018 -1.31414,-2.3806 -3.57312,-4.16797 -4.8062,-6.59154 -1.83571,-3.608 -1.3507,-7.10304 -3.57068,-10.40932 -0.92481,-1.37735 -2.58837,-2.21012 -3.3421,-3.68805 -1.59721,-3.13185 -2.54604,-6.55974 -3.59538,-9.9151 -0.28212,-0.9021 0.64223,-2.14207 0,-2.83554 -5.03424,-5.43591 -8.33042,-11.69158 -12.73211,-18.3414 -2.33496,-3.52752 -1.0205,0.578 -4.78149,-3.14442 -3.55958,-3.52306 -5.59784,-8.33908 -8.8958,-12.10817 -7.45763,-8.52301 -6.84453,-6.56972 -11.62013,-16.50664"
     id="path23" />
  <path
     style="fill:#ff0000"
     d="m 301.05476,922.28408 c 27.5631,-48.72187 79.90266,-76.67732 118.46854,-115.39208 9.5918,-9.62882 16.04515,-21.99213 25.06267,-32.16077 4.2349,-4.77549 10.02373,-7.95218 14.52363,-12.47883 2.46657,-2.48123 3.60244,-6.1484 6.25794,-8.42629 15.17121,-13.01391 32.98298,-22.64996 48.59947,-35.12605 7.7716,-6.20876 14.69709,-13.41226 21.8503,-20.32442 8.0447,-7.77361 15.01018,-16.6301 23.2032,-24.24722 4.3532,-4.0472 9.70388,-6.91371 14.10973,-10.90353 5.99785,-5.43151 11.35449,-11.53159 17.03174,-17.29738 8.73106,-7.02398 17.60601,-13.87275 26.19318,-21.07192 5.75606,-4.82568 10.25265,-11.28485 16.71668,-15.1105 2.62975,-1.55638 7.61079,-0.7338 10.58847,-1.58148 6.71868,-1.91266 0.92467,-2.221 7.24637,-6.6842 14.65533,-6.09547 1.55551,0.52836 12.42941,-8.13595 7.47842,-5.95879 24.05539,-12.76534 29.33141,-18.04487 15.09428,-15.10433 -31.96825,10.139 15.07344,-14.59158 1.41987,-0.74645 3.37744,0.71706 4.81238,0 3.45479,-1.72641 5.23599,-7.36374 7.53671,-7.36374 4.10375,0 6.24344,-3.10736 10.40932,-3.10736 0.5488,0 0.85251,-1.9573 0.85251,-1.4085 0,0.50863 0,1.01725 0,1.52588"
     id="path24" />
</svg>
