<?xml version="1.0" encoding="UTF-8" standalone="no"?>
<svg
   id="visual"
   viewBox="0 0 900 317.74438"
   width="900"
   height="317.74438"
   version="1.1"
   xmlns="http://www.w3.org/2000/svg"
   xmlns:svg="http://www.w3.org/2000/svg">
  <defs
     id="defs4" />
  <rect
     x="0"
     y="0"
     width="900"
     height="315.36847"
     fill="#1f2033"
     id="rect1"
     style="stroke-width:0.724992" />
  <path
     d="m 0,20.673649 h 150 v 2.02548 h 150 v 7.42677 H 450 V 5.8201192 h 150 v -4.72613 H 750 V 56.457169 h 150 v -41.85997 303.147201 0 H 750 v 0 H 600 v 0 H 450 v 0 H 300 v 0 H 150 v 0 H 0 Z"
     fill="#1f2033"
     id="path1"
     style="stroke-width:0.821682" />
  <path
     d="m 0,51.280319 h 150 v 3.58385 H 300 V 105.03811 H 450 V 65.615729 h 150 v 19.35281 h 150 v 0 h 150 v 7.1677 225.065961 0 H 750 v 0 H 600 v 0 H 450 v 0 H 300 v 0 H 150 v 0 H 0 Z"
     fill="#373b70"
     id="path2"
     style="stroke-width:0.846623" />
  <path
     d="m 0,171.28032 h 150 v 32.08414 h 150 v -12.83365 h 150 v 15.75039 h 150 v -25.08396 h 150 v -5.25014 h 150 v 17.50045 124.25313 0 H 750 v 0 H 600 v 0 H 450 v 0 H 300 v 0 H 150 v 0 H 0 Z"
     fill="#5357b2"
     id="path3"
     style="stroke-width:0.763772" />
  <path
     d="m 0,266.30573 h 150 v 8.77678 h 150 v -10.80219 h 150 v 11.8149 h 150 v 2.02541 h 150 v -12.15247 h 150 v 19.57897 32.06901 0 H 750 v 0 H 600 v 0 H 450 v 0 H 300 v 0 H 150 v 0 H 0 Z"
     fill="#7573f8"
     id="path4"
     style="stroke-width:0.581006" />
</svg>
