<?xml version="1.0" encoding="UTF-8" standalone="no"?>
<!-- Created with Inkscape (http://www.inkscape.org/) -->

<svg
   width="25.696356mm"
   height="25.696356mm"
   viewBox="0 0 25.696356 25.696356"
   version="1.1"
   id="svg1"
   sodipodi:docname="logo.svg"
   inkscape:version="1.3.2 (091e20e, 2023-11-25, custom)"
   inkscape:export-filename="aai.png"
   inkscape:export-xdpi="96"
   inkscape:export-ydpi="96"
   xmlns:inkscape="http://www.inkscape.org/namespaces/inkscape"
   xmlns:sodipodi="http://sodipodi.sourceforge.net/DTD/sodipodi-0.dtd"
   xmlns="http://www.w3.org/2000/svg"
   xmlns:svg="http://www.w3.org/2000/svg">
  <sodipodi:namedview
     id="namedview1"
     pagecolor="#ffffff"
     bordercolor="#000000"
     borderopacity="0.25"
     inkscape:showpageshadow="2"
     inkscape:pageopacity="0.0"
     inkscape:pagecheckerboard="0"
     inkscape:deskcolor="#d1d1d1"
     inkscape:document-units="mm"
     inkscape:zoom="2.8284271"
     inkscape:cx="35.355339"
     inkscape:cy="30.228815"
     inkscape:window-width="1920"
     inkscape:window-height="1009"
     inkscape:window-x="-8"
     inkscape:window-y="-8"
     inkscape:window-maximized="1"
     inkscape:current-layer="svg1" />
  <defs
     id="defs1">
    <filter
       style="color-interpolation-filters:sRGB;"
       inkscape:label="Feather"
       id="filter40"
       x="-0.4397901"
       y="-0.43320917"
       width="1.8795802"
       height="1.8664183">
      <feGaussianBlur
         stdDeviation="0.92"
         result="blur"
         id="feGaussianBlur38" />
      <feComposite
         in="SourceGraphic"
         in2="blur"
         operator="atop"
         result="composite1"
         id="feComposite38" />
      <feComposite
         in2="composite1"
         operator="in"
         result="composite2"
         id="feComposite39" />
      <feComposite
         in2="composite2"
         operator="in"
         result="composite3"
         id="feComposite40" />
    </filter>
  </defs>
  <path
     id="path1-2-2"
     style="font-weight:bold;font-size:25.4px;font-family:Rajdhani;-inkscape-font-specification:'Rajdhani, Bold';text-align:center;text-anchor:middle;fill:#0084e7;fill-opacity:1;fill-rule:evenodd;stroke-width:3.94722;stroke-linecap:square;stroke-miterlimit:0;stroke-dashoffset:1607.84"
     d="m 6.810316,7.6911162 c -1.55624,6e-7 -2.7579614,0.413594 -3.6050254,1.240965 -0.847068,0.827365 -1.270647,2.0192118 -1.270647,3.5754488 v 5.437057 c 0,1.556238 0.423579,2.747968 1.270647,3.57534 C 4.0523546,22.347297 5.254076,22.761 6.810316,22.761 h 0.709152 c 0.610676,0 1.191838,-0.128061 1.7434146,-0.384152 0.5515777,-0.275787 0.9356584,-0.679617 1.1523454,-1.211497 h 0.118192 v 0.975114 c 0,0.413682 0.206852,0.620535 0.620537,0.620535 h 2.482144 c 0.433381,0 0.650003,-0.206853 0.650003,-0.620535 v -2.203511 -6.966776 -0.0097 c 0,-0.413682 -0.206853,-0.620535 -0.620536,-0.620535 h -2.541187 c -0.393983,0 -0.590961,0.206853 -0.590961,0.620535 v 0.0097 4.294722 c 0,1.497142 -0.6795937,2.245759 -2.03884,2.245759 H 7.401274 c -0.630373,0 -1.073598,-0.128059 -1.329688,-0.38415 -0.25609,-0.275787 -0.384152,-0.728888 -0.384152,-1.359266 v -5.08237 c 0,-0.630377 0.128062,-1.073601 0.384152,-1.329689 0.25609,-0.275789 0.1701483,-0.413729 0.8005213,-0.413729 h 2.605537 0.184059 c 0.4136857,0 0.6205367,-0.206851 0.6205367,-0.620535 V 8.2820762 c 0,-0.216689 -0.0394,-0.364502 -0.118193,-0.443301 -0.0788,-0.0985 -0.2462517,-0.14766 -0.5023437,-0.14766 h -0.184059 z"
     sodipodi:nodetypes="ssssssscccssssccsssscssscsscscssscscs" />
  <path
     id="text1-7"
     style="font-weight:bold;font-size:25.4px;font-family:Rajdhani;-inkscape-font-specification:'Rajdhani, Bold';text-align:center;text-anchor:middle;fill:#eaeaee;fill-opacity:1;fill-rule:evenodd;stroke-width:3.94722;stroke-linecap:square;stroke-miterlimit:0;stroke-dashoffset:1607.84"
     d="M 16.647046,6.1639648 V 7.6910034 H 13.06328 c -0.413679,0 -0.620626,0.2069504 -0.620634,0.620634 v 2.0386356 c -9e-6,0.393986 0.206955,0.591178 0.620634,0.591178 h 1.933216 0.40721 c 0.393986,0 0.591178,0.197194 0.591178,0.591178 v 1.283126 0.35295 0.17415 c 0,0.393982 0.196676,0.591178 0.590662,0.591178 h 0.377755 c 0.393985,0 0.590661,0.186927 0.590661,0.561206 v 2.600358 c 0,0.393985 -0.196676,0.591179 -0.590661,0.591179 h -0.377755 c -0.393984,0 -0.590662,0.196675 -0.590662,0.590661 v 0.407727 3.455087 c 0,0.413666 0.206435,0.620634 0.620118,0.620634 h 0.257865 0.40721 c 0.393987,0 0.591179,0.197193 0.591179,0.591178 v 0.5271 0.167431 c 0,0.393987 0.196676,0.590662 0.590661,0.590662 h 2.570903 c 0.393986,0 0.591178,-0.196675 0.591178,-0.590662 v -2.600358 c 0,-0.374283 -0.197192,-0.561723 -0.591178,-0.561723 H 19.747632 V 19.91403 19.38693 16.116329 15.708602 8.3116374 8.2821818 c 0,-0.2166908 -0.03955,-0.3645839 -0.118339,-0.4433838 -0.0788,-0.0985 -0.246202,-0.1477946 -0.502295,-0.1477946 h -0.03256 V 6.1639648 H 18.317224 V 7.6910034 H 17.424255 V 6.1639648 Z"
     sodipodi:nodetypes="ccsccscssccsssssssscsscsscssssssccccccscsccccccc"
     inkscape:label="text1-7" />
  <path
     d="m 20.917214,17.084576 v -0.906743 c 0,-0.393983 0.196992,-0.59098 0.590979,-0.59098 h 0.906746 c 0.393987,0 0.59098,0.187145 0.59098,0.561429 v 0.936295 c 0,0.393987 -0.196993,0.59098 -0.59098,0.59098 h -0.906746 c -0.393987,0 -0.590979,-0.196993 -0.590979,-0.590981 z"
     style="font-weight:bold;font-size:25.4px;font-family:Rajdhani;-inkscape-font-specification:'Rajdhani, Bold';text-align:center;text-anchor:middle;fill:#0084e7;fill-opacity:1;fill-rule:evenodd;stroke-width:3.94722;stroke-linecap:square;stroke-miterlimit:0;stroke-dashoffset:1607.84"
     id="path1-0-2-9-3-0"
     sodipodi:nodetypes="sssssssss" />
  <path
     d="m 22.153002,19.683398 v -0.906744 c 0,-0.393984 0.196993,-0.590979 0.59098,-0.590979 h 0.906746 c 0.393987,0 0.59098,0.187144 0.59098,0.561429 v 0.936294 c 0,0.393987 -0.196993,0.590981 -0.59098,0.590981 h -0.906746 c -0.393987,0 -0.59098,-0.196994 -0.59098,-0.590981 z"
     style="font-weight:bold;font-size:25.4px;font-family:Rajdhani;-inkscape-font-specification:'Rajdhani, Bold';text-align:center;text-anchor:middle;fill:#0084e7;fill-opacity:1;fill-rule:evenodd;stroke-width:3.94722;stroke-linecap:square;stroke-miterlimit:0;stroke-dashoffset:1607.84"
     id="path1-0-2-9-3-0-3"
     sodipodi:nodetypes="sssssssss" />
  <path
     id="path8-0-7"
     style="fill:#ffb60a;fill-opacity:1;fill-rule:evenodd;stroke-width:0.31729;stroke-linecap:square;stroke-miterlimit:0;stroke-dashoffset:1607.84"
     d="m 17.859892,1.300179 c -0.769696,0 -1.535824,0.5688048 -1.535824,1.6800009 v 2.2381063 h -0.741557 v 0.9456786 h 4.576981 V 5.2182862 H 19.417936 V 2.9801799 C 19.402679,1.8507561 18.629592,1.300179 17.859892,1.300179 Z"
     sodipodi:nodetypes="sscccccccs" />
</svg>
