<?xml version="1.0" encoding="UTF-8" standalone="no"?>
<!-- Created with Inkscape (http://www.inkscape.org/) -->

<svg
   width="25.696356mm"
   height="25.696356mm"
   viewBox="0 0 25.696356 25.696356"
   version="1.1"
   id="svg1"
   sodipodi:docname="ai2.svg"
   inkscape:version="1.3 (0e150ed6c4, 2023-07-21)"
   xmlns:inkscape="http://www.inkscape.org/namespaces/inkscape"
   xmlns:sodipodi="http://sodipodi.sourceforge.net/DTD/sodipodi-0.dtd"
   xmlns="http://www.w3.org/2000/svg"
   xmlns:svg="http://www.w3.org/2000/svg">
  <sodipodi:namedview
     id="namedview1"
     pagecolor="#ffffff"
     bordercolor="#000000"
     borderopacity="0.25"
     inkscape:showpageshadow="2"
     inkscape:pageopacity="0.0"
     inkscape:pagecheckerboard="0"
     inkscape:deskcolor="#d1d1d1"
     inkscape:document-units="mm"
     inkscape:zoom="4.5253255"
     inkscape:cx="51.929966"
     inkscape:cy="54.913177"
     inkscape:window-width="1920"
     inkscape:window-height="1057"
     inkscape:window-x="-8"
     inkscape:window-y="-8"
     inkscape:window-maximized="1"
     inkscape:current-layer="layer1" />
  <defs
     id="defs1" />
  <g
     id="layer1"
     transform="translate(-4.2381856,-3.7844318)">
    <rect
       style="fill:#151524;fill-opacity:0;fill-rule:evenodd;stroke-width:0.309006;stroke-linecap:square;stroke-miterlimit:0;stroke-dashoffset:1607.84"
       id="rect3"
       width="25.696356"
       height="25.696356"
       x="4.2381854"
       y="3.7844317"
       inkscape:export-filename="ai2.png"
       inkscape:export-xdpi="96"
       inkscape:export-ydpi="96" />
    <path
       id="path3"
       style="fill:#f7fff7;fill-opacity:1;fill-rule:evenodd;stroke-width:0.34031;stroke-linecap:square;stroke-miterlimit:0;stroke-dashoffset:1607.84"
       d="m 18.017212,11.953222 v 3.473691 h 3.827156 v 3.249931 h 1.736845 l -2.7e-5,3.324344 h -1.737 v 4.979857 h 1.737 V 25.2442 h 1.737 V 11.953222 Z"
       sodipodi:nodetypes="ccccccccccccc" />
    <path
       id="path7"
       style="fill:#9e9ed8;fill-opacity:1;fill-rule:evenodd;stroke-width:0.496054;stroke-linecap:square;stroke-miterlimit:0;stroke-dashoffset:1607.84"
       d="M 16.637094,16.760236 V 13.08593 c -0.817318,-0.90687 -1.79854,-1.458352 -2.827424,-1.589115 -0.242407,-0.02994 -0.485945,-0.03633 -0.728952,-0.01914 -2.525702,0.180367 -4.626429,2.851991 -5.056193,6.43027 -0.476899,3.969789 1.241501,7.803235 3.955475,8.823966 1.615861,0.602515 3.334948,0.09866 4.657094,-1.364962 v 1.611896 h 3.473454 V 16.760236 Z m -2.639719,-2.415039 c 0.164027,-0.01085 0.328414,-0.0069 0.492043,0.01186 0.799785,0.09225 1.554582,0.534494 2.147676,1.258353 v 7.222094 c -0.913939,1.115051 -2.187515,1.535456 -3.384161,1.117106 -1.83472,-0.642681 -2.996572,-3.057431 -2.674343,-5.55826 0.290424,-2.254706 1.710996,-3.93804 3.418785,-4.051153 z" />
    <path
       style="fill:#27e86d;fill-opacity:1;fill-rule:evenodd;stroke-width:0.34031;stroke-linecap:square;stroke-miterlimit:0;stroke-dashoffset:1607.84"
       d="m 20.894141,10.684388 -6.2e-5,-1.8243858 h 0.7053 v -1.356538 c 0,-2.3836286 3.285796,-2.4227294 3.318458,0 v 1.356538 h 0.705306 l -2e-5,1.8243858 z"
       id="path8" />
    <path
       id="rect8"
       style="fill:#9e9ed8;fill-opacity:1;fill-rule:evenodd;stroke-width:0.351606;stroke-linecap:square;stroke-miterlimit:0;stroke-dashoffset:1607.84"
       d="m 24.316942,26.306648 h 1.736811 v 1.736811 h -1.736811 z" />
    <path
       id="rect8-65"
       style="fill:#9e9ed8;fill-opacity:1;fill-rule:evenodd;stroke-width:0.351606;stroke-linecap:square;stroke-miterlimit:0;stroke-dashoffset:1607.84"
       d="m 26.053753,21.245524 h 1.73681 v 1.73681 h -1.73681 z" />
  </g>
</svg>
