<?xml version="1.0" encoding="UTF-8"?>
<svg id="Livello_1" data-name="Livello 1" xmlns="http://www.w3.org/2000/svg" version="1.1" xmlns:inkscape="http://www.inkscape.org/namespaces/inkscape" xmlns:sodipodi="http://sodipodi.sourceforge.net/DTD/sodipodi-0.dtd" xmlns:svg="http://www.w3.org/2000/svg" viewBox="0 0 62.4 59.4">
  <defs>
    <style>
      .cls-1 {
        fill: #fff;
        stroke-width: 0px;
      }
    </style>
  </defs>
  <g id="svg2" sodipodi:docname="moonSlider.svg">
    <sodipodi:namedview id="namedview2" bordercolor="#000000" borderopacity="0.25" inkscape:current-layer="svg2" inkscape:cx="54.9631" inkscape:cy="58.201107" inkscape:deskcolor="#d1d1d1" inkscape:pagecheckerboard="0" inkscape:pageopacity="0.0" inkscape:showpageshadow="2" inkscape:window-height="1009" inkscape:window-maximized="1" inkscape:window-width="1920" inkscape:window-x="1912" inkscape:window-y="-8" inkscape:zoom="6.0222222" pagecolor="#ffffff"/>
    <path id="path1" class="cls-1" d="M62.4,33.6c-1.3,7.4-5.3,13.9-10.8,18.6-5.5,4.5-12.5,7.2-20.1,7.2s-16.6-3.5-22.3-9.2C3.5,44.5,0,36.6,0,27.9s1.6-11.5,4.5-16.2C7.5,6.7,11.8,2.7,16.9,0c.2-.1.5,0,.7.2v.4c-.2.9-.3,1.8-.4,2.7,0,.9-.1,1.8-.1,2.8,0,8.4,3.4,16,8.9,21.5,5.6,5.5,13.2,9,21.6,9s4.9-.3,7.3-.9c2.4-.6,4.7-1.5,6.8-2.6.3,0,.6,0,.7.2v.3h0ZM51,51.4c5.1-4.3,8.8-10.2,10.2-16.9-1.9.9-4,1.6-6.1,2.2-2.4.5-4.9.9-7.5.9-8.7,0-16.6-3.6-22.3-9.3-5.7-5.7-9.2-13.5-9.2-22.2s.1-1.9.1-2.9c.1-.6.2-1.2.3-1.8-4.6,2.6-8.4,6.3-11.1,10.8-2.8,4.6-4.4,10-4.4,15.7,0,8.5,3.4,16.1,8.9,21.6s13.1,8.9,21.6,8.9,14.2-2.6,19.5-7h0Z"/>
  </g>
</svg>