<?xml version="1.0" encoding="UTF-8"?>
<svg id="svg2" xmlns="http://www.w3.org/2000/svg" version="1.1" xmlns:inkscape="http://www.inkscape.org/namespaces/inkscape" xmlns:sodipodi="http://sodipodi.sourceforge.net/DTD/sodipodi-0.dtd" xmlns:svg="http://www.w3.org/2000/svg" viewBox="0 0 93.6 93.6">
  <defs>
    <style>
      .cls-1 {
        fill: #fff;
        stroke-width: 0px;
      }
    </style>
  </defs>
  <sodipodi:namedview id="namedview2" bordercolor="#000000" borderopacity="0.25" inkscape:current-layer="svg2" inkscape:cx="54.9631" inkscape:cy="87.260148" inkscape:deskcolor="#d1d1d1" inkscape:pagecheckerboard="0" inkscape:pageopacity="0.0" inkscape:showpageshadow="2" inkscape:window-height="1009" inkscape:window-maximized="1" inkscape:window-width="1920" inkscape:window-x="1912" inkscape:window-y="-8" inkscape:zoom="6.0222222" pagecolor="#ffffff"/>
  <path id="path1" class="cls-1" d="M46.8,18.6c-15.6,0-28.2,12.7-28.2,28.2s12.7,28.2,28.2,28.2,28.2-12.7,28.2-28.2-12.7-28.2-28.2-28.2ZM46.8,73.1c-14.5,0-26.3-11.8-26.3-26.3s11.8-26.3,26.3-26.3,26.3,11.8,26.3,26.3-11.8,26.3-26.3,26.3ZM45.8,10.4V1c0-.5.4-1,1-1s1,.4,1,1v9.5c0,.5-.4,1-1,1s-1-.4-1-1h0ZM64.2,14.8l4.7-8.2c.3-.5.9-.6,1.3-.4.5.3.6.9.4,1.3l-4.7,8.2c-.2.3-.5.5-.8.5s-.3,0-.5-.1c-.4-.3-.6-.8-.3-1.3h0ZM77.5,29.1c-.3-.5,0-1,.4-1.3l8.2-4.7c.5-.3,1-.1,1.3.4s0,1-.4,1.3l-8.2,4.7c0,0-.3.1-.5.1-.3,0-.6-.2-.8-.5h0ZM93.6,46.8c0,.5-.4,1-1,1h-9.5c-.5,0-1-.4-1-1s.4-1,1-1h9.5c.5,0,1,.4,1,1ZM87.3,70.2c-.2.3-.5.5-.8.5s-.3,0-.5,0l-8.2-4.7c-.5-.3-.6-.9-.4-1.3.3-.5.9-.6,1.3-.4l8.2,4.7c.5.3.6.8.4,1.3h0ZM70.6,86c.3.5,0,1-.4,1.3,0,0-.3,0-.5,0-.3,0-.6-.2-.8-.5l-4.7-8.2c-.3-.5,0-1,.4-1.3s1,0,1.3.4l4.7,8.2ZM47.8,83.2v9.5c0,.5-.4,1-1,1s-1-.4-1-1v-9.5c0-.5.4-1,1-1s1,.4,1,1ZM29.4,78.8l-4.7,8.2c-.2.3-.5.5-.8.5s-.3,0-.5,0c-.5-.3-.6-.9-.4-1.3l4.7-8.2c.3-.5.9-.6,1.3-.4.5.3.6.8.4,1.3h0ZM16.1,64.5c.3.5.1,1-.4,1.3l-8.2,4.7c0,0-.3,0-.5,0-.3,0-.6-.2-.8-.5-.3-.5,0-1,.4-1.3l8.2-4.7c.5-.3,1,0,1.3.4ZM10.4,47.8H1c-.5,0-1-.4-1-1s.4-1,1-1h9.5c.5,0,1,.4,1,1s-.4,1-1,1h-.1ZM16.1,29.1c-.2.3-.5.5-.8.5s-.3,0-.5-.1l-8.2-4.7c-.5-.3-.6-.9-.4-1.3.3-.5.9-.6,1.3-.4l8.2,4.7c.5.3.6.8.4,1.3h0ZM23.1,7.6c-.3-.5-.1-1,.4-1.3.5-.3,1,0,1.3.4l4.7,8.2c.3.5.1,1-.4,1.3-.1,0-.3.1-.5.1-.3,0-.6-.2-.8-.5,0,0-4.7-8.2-4.7-8.2Z"/>
</svg>